<?xml version="1.0" standalone="no"?>

<svg version="1.0" xmlns="http://www.w3.org/2000/svg" width="1255.000000pt" height="832.000000pt" viewBox="0 0 1255.000000 832.000000" preserveAspectRatio="xMidYMid meet">

<g transform="translate(0.000000,832.000000) scale(0.100000,-0.100000)" fill="#000000" stroke="none">
<path d="M5090 6702 c0 -901 3 -1017 32 -1151 9 -39 14 -49 19 -35 3 11 3 26&#xA;-1 34 -4 8 -6 35 -4 59 2 29 -2 48 -11 55 -16 13 -25 96 -10 96 5 0 3 5 -5 10&#xA;-11 8 -12 12 -3 18 9 5 12 45 12 132 -1 77 -4 117 -9 105 -8 -18 -9 -17 -9 8&#xA;-1 15 4 27 10 27 8 0 8 4 0 13 -7 10 -7 17 0 24 8 8 8 17 0 30 -7 14 -7 24 2&#xA;33 9 10 9 11 0 6 -10 -5 -13 149 -13 719 0 512 3 724 10 720 21 -13 57 -12 57&#xA;2 0 7 -5 13 -11 14 -6 0 -23 2 -38 4 l-28 4 0 -927z"></path>
<path d="M8073 7555 c0 -27 2 -38 4 -22 2 15 2 37 0 50 -2 12 -4 0 -4 -28z"></path>
<path d="M7746 7573 c-6 -14 -5 -15 5 -6 7 7 10 15 7 18 -3 3 -9 -2 -12 -12z"></path>
<path d="M7549 7558 c-14 -12 -17 -19 -8 -15 9 3 21 1 27 -5 7 -7 10 -2 9 16&#xA;-1 14 -2 26 -3 26 -1 0 -12 -10 -25 -22z"></path>
<path d="M7613 7546 c6 -13 17 -22 23 -19 9 3 6 11 -7 24 -25 25 -29 24 -16&#xA;-5z"></path>
<path d="M6585 7520 c3 -5 8 -10 11 -10 2 0 4 5 4 10 0 6 -5 10 -11 10 -5 0&#xA;-7 -4 -4 -10z"></path>
<path d="M6635 7519 c-4 -6 -5 -12 -2 -15 2 -3 7 2 10 11 7 17 1 20 -8 4z"></path>
<path d="M6170 7510 c0 -5 5 -10 11 -10 5 0 7 5 4 10 -3 6 -8 10 -11 10 -2 0&#xA;-4 -4 -4 -10z"></path>
<path d="M6235 7510 c3 -5 8 -10 11 -10 2 0 4 5 4 10 0 6 -5 10 -11 10 -5 0&#xA;-7 -4 -4 -10z"></path>
<path d="M6294 7500 c-6 -6 -205 -11 -534 -13 -479 -2 -466 -2 140 -3 366 -1&#xA;634 2 595 6 -38 4 -79 11 -90 15 -15 5 -16 4 -6 -3 11 -8 2 -10 -32 -10 -26 0&#xA;-47 4 -47 9 0 12 -13 12 -26 -1z"></path>
<path d="M6625 7481 c-3 -5 -1 -12 5 -16 5 -3 10 -3 10 1 0 3 7 1 15 -6 19&#xA;-16 20 -3 1 16 -17 16 -23 17 -31 5z"></path>
<path d="M6590 6962 c0 -287 1 -522 3 -522 2 0 36 37 77 83 41 45 60 69 43 54&#xA;-17 -16 -34 -29 -37 -28 -22 4 -36 0 -31 -9 8 -13 -28 0 -37 14 -4 6 -7 180&#xA;-7 388 0 350 1 377 17 372 15 -5 15 -4 1 5 -12 8 -17 29 -18 83 -1 40 -4 74&#xA;-6 77 -3 2 -5 -230 -5 -517z"></path>
<path d="M7080 7476 c0 -2 7 -7 16 -10 8 -3 12 -2 9 4 -6 10 -25 14 -25 6z"></path>
<path d="M5235 6820 c0 -344 1 -484 2 -312 2 171 2 453 0 625 -1 171 -2 31 -2&#xA;-313z"></path>
<path d="M8072 7410 c0 -19 2 -27 5 -17 2 9 2 25 0 35 -3 9 -5 1 -5 -18z"></path>
<path d="M6658 7418 c-9 -5 -6 -8 9 -8 12 0 24 4 27 8 7 11 -19 11 -36 0z"></path>
<path d="M6655 7379 c-4 -6 -13 -8 -21 -5 -7 3 -16 1 -19 -5 -4 -5 1 -12 11&#xA;-16 10 -4 20 0 26 11 8 14 12 15 26 4 15 -12 16 -11 3 5 -16 20 -18 20 -26 6z"></path>
<path d="M6700 7349 c0 -5 5 -7 10 -4 6 3 10 8 10 11 0 2 -4 4 -10 4 -5 0 -10&#xA;-5 -10 -11z"></path>
<path d="M5889 7238 c-12 -23 -32 -61 -45 -84 l-24 -41 29 2 c17 1 36 6 43 12&#xA;32 25 65 23 93 -5 24 -23 21 -14 -20 63 -27 50 -50 92 -51 93 -1 2 -12 -16&#xA;-25 -40z m0 -72 c9 -11 9 -16 -1 -22 -7 -4 -10 -4 -6 1 4 4 3 14 -3 22 -6 7&#xA;-9 13 -6 13 2 0 10 -6 16 -14z"></path>
<path d="M6618 7263 c7 -3 16 -2 19 1 4 3 -2 6 -13 5 -11 0 -14 -3 -6 -6z"></path>
<path d="M6630 7215 c-8 -9 -8 -15 -2 -15 12 0 26 19 19 26 -2 2 -10 -2 -17&#xA;-11z"></path>
<path d="M6610 7140 c0 -5 5 -10 10 -10 6 0 10 5 10 10 0 6 -4 10 -10 10 -5 0&#xA;-10 -4 -10 -10z"></path>
<path d="M5755 7007 c-32 -50 -64 -101 -72 -113 -12 -18 -11 -24 4 -42 10 -12&#xA;31 -24 47 -26 16 -3 25 -2 21 2 -3 4 -12 7 -18 7 -7 0 -14 11 -15 24 -3 16 0&#xA;21 9 15 9 -5 11 -2 6 9 -3 8 1 21 9 27 17 15 19 44 2 35 -7 -4 -3 2 9 13 12&#xA;11 23 30 25 43 2 13 11 39 21 58 33 65 10 41 -48 -52z"></path>
<path d="M6080 6971 c5 -11 15 -23 21 -27 6 -3 3 5 -6 20 -20 30 -30 35 -15 7z"></path>
<path d="M7117 6945 c12 -16 45 -55 74 -85 l51 -55 -42 52 c-23 29 -46 55 -51&#xA;59 -5 3 -9 15 -9 26 0 12 -3 18 -7 15 -3 -4 -13 -1 -22 6 -8 6 -5 -1 6 -18z"></path>
<path d="M6130 6891 c5 -11 15 -23 20 -26 6 -3 10 -14 10 -23 -1 -16 -1 -16&#xA;-11 1 -5 9 -15 17 -22 17 -9 0 -9 -2 0 -8 16 -10 2 -32 -23 -37 -10 -2 -23 -4&#xA;-29 -5 -14 -3 73 -18 108 -19 l28 -1 -42 60 c-42 60 -59 78 -39 41z"></path>
<path d="M6617 6903 c-9 -9 -9 -23 1 -22 18 3 26 -2 14 -10 -9 -5 -3 -8 17 -9&#xA;17 0 31 3 31 8 0 5 3 17 6 27 6 17 6 17 -8 -1 -15 -20 -55 -16 -43 4 7 11 -8&#xA;14 -18 3z"></path>
<path d="M6988 6885 c-15 -14 -31 -25 -35 -25 -13 -1 -83 -57 -78 -62 3 -3 -1&#xA;-11 -10 -18 -8 -7 -15 -19 -15 -27 0 -8 -4 -12 -9 -8 -5 3 -12 1 -16 -5 -3 -5&#xA;-1 -10 5 -10 7 0 9 -7 6 -17 -4 -10 22 14 57 52 125 137 157 178 95 120z"></path>
<path d="M6074 6768 c9 -12 16 -31 16 -41 0 -10 5 -15 10 -12 6 3 18 -7 28&#xA;-24 9 -17 22 -33 29 -35 7 -3 -11 26 -39 65 -28 38 -52 69 -55 69 -2 0 3 -10&#xA;11 -22z"></path>
<path d="M5720 6740 c-12 -16 -19 -30 -16 -30 2 0 14 14 26 30 12 17 19 30 16&#xA;30 -2 0 -14 -13 -26 -30z"></path>
<path d="M7022 6701 c-42 -48 -55 -67 -41 -64 11 3 23 11 25 18 6 14 54 17 54&#xA;3 0 -5 5 -6 10 -3 6 3 10 12 10 20 0 14 -16 15 -37 2 -6 -4 -14 -3 -17 2 -7&#xA;11 20 34 42 38 9 1 18 7 20 13 3 7 14 2 30 -12 25 -23 25 -22 -2 15 -16 20&#xA;-29 37 -30 37 -1 0 -30 -31 -64 -69z"></path>
<path d="M7496 6734 c-14 -15 -26 -23 -26 -18 0 5 -4 5 -8 -1 -13 -18 -69 -45&#xA;-77 -37 -5 4 -5 -1 -1 -12 5 -14 3 -17 -11 -12 -15 6 -14 4 2 -14 l19 -21 67&#xA;67 66 66 44 -47 c36 -38 45 -43 45 -27 0 11 -3 19 -6 17 -3 -2 -21 12 -39 31&#xA;-19 19 -37 34 -41 34 -4 0 -19 -12 -34 -26z"></path>
<path d="M8073 6720 c0 -25 2 -35 4 -22 2 12 2 32 0 45 -2 12 -4 2 -4 -23z"></path>
<path d="M7314 6712 c11 -12 20 -22 20 -22 1 0 2 10 3 23 0 12 -1 16 -4 9 -4&#xA;-10 -8 -10 -21 0 -12 9 -11 6 2 -10z"></path>
<path d="M5646 6640 c-26 -34 -44 -66 -40 -72 4 -6 3 -8 -4 -5 -9 7 -76 -72&#xA;-68 -80 2 -2 40 -1 85 3 85 7 104 18 26 16 -26 -1 -45 2 -45 9 0 6 -9 8 -22 3&#xA;-20 -6 -21 -5 -6 10 9 9 24 16 32 16 9 0 16 7 16 15 0 8 3 15 8 15 4 0 15 21&#xA;26 46 10 24 25 52 33 60 9 8 13 17 10 20 -2 3 -26 -22 -51 -56z"></path>
<path d="M7100 6666 c7 -7 14 -6 21 1 9 9 7 12 -9 10 -14 -1 -18 -5 -12 -11z"></path>
<path d="M7184 6633 c14 -20 23 -40 20 -44 -2 -4 6 -13 18 -20 28 -15 64 -49&#xA;117 -112 23 -27 41 -46 41 -42 0 7 -210 255 -216 255 -3 0 6 -17 20 -37z"></path>
<path d="M8072 6650 c0 -14 2 -19 5 -12 2 6 2 18 0 25 -3 6 -5 1 -5 -13z"></path>
<path d="M7080 6650 c0 -5 5 -10 11 -10 5 0 7 5 4 10 -3 6 -8 10 -11 10 -2 0&#xA;-4 -4 -4 -10z"></path>
<path d="M6170 6636 c0 -2 8 -10 18 -17 15 -13 16 -12 3 4 -13 16 -21 21 -21&#xA;13z"></path>
<path d="M7006 6632 c-3 -5 1 -9 9 -9 8 0 12 4 9 9 -3 4 -7 8 -9 8 -2 0 -6 -4&#xA;-9 -8z"></path>
<path d="M7010 6601 c0 -5 5 -13 10 -16 6 -3 10 -2 10 4 0 5 -4 13 -10 16 -5&#xA;3 -10 2 -10 -4z"></path>
<path d="M6824 6483 c-132 -146 -172 -190 -154 -175 7 6 22 12 32 12 10 0 17&#xA;6 16 13 -2 6 3 11 10 9 8 -1 11 1 8 6 -7 11 25 30 47 26 14 -2 16 2 11 18 -4&#xA;14 -2 18 5 14 6 -4 11 -2 11 4 0 6 4 9 9 6 5 -4 7 4 3 16 -3 13 -1 19 5 15 6&#xA;-4 13 2 16 13 3 11 11 20 19 19 9 0 9 -2 1 -5 -12 -5 -7 -34 6 -34 9 0 8 31&#xA;-2 47 -10 17 6 45 44 77 17 14 26 26 21 26 -5 0 -54 -48 -108 -107z"></path>
<path d="M7765 6511 c41 -42 61 -57 67 -48 13 20 10 25 -32 48 -22 12 -36 27&#xA;-33 33 3 6 2 8 -2 3 -5 -4 -20 0 -34 9 -14 9 1 -11 34 -45z"></path>
<path d="M6240 6548 c10 -15 10 -18 -4 -18 -9 0 -15 -6 -13 -12 1 -8 -14 -15&#xA;-43 -18 -42 -5 -40 -6 33 -14 43 -4 80 -6 82 -4 2 2 -12 21 -32 43 -19 22 -30&#xA;32 -23 23z"></path>
<path d="M7515 6540 c-3 -6 1 -7 9 -4 18 7 21 14 7 14 -6 0 -13 -4 -16 -10z"></path>
<path d="M6965 6530 c3 -5 1 -10 -6 -10 -7 0 -10 -2 -8 -5 3 -2 15 -2 28 2 17&#xA;4 19 8 9 14 -18 12 -31 11 -23 -1z"></path>
<path d="M5705 6475 c-6 -7 -24 -31 -41 -52 -31 -37 -31 -38 -9 -38 13 0 22 2&#xA;20 4 -3 2 7 24 21 48 24 43 29 68 9 38z"></path>
<path d="M6146 6428 c49 -65 124 -151 124 -143 0 6 -162 205 -167 205 -2 0 17&#xA;-28 43 -62z"></path>
<path d="M7424 6438 l-19 -23 23 19 c21 18 27 26 19 26 -2 0 -12 -10 -23 -22z"></path>
<path d="M7633 6432 c10 -10 17 -26 17 -35 0 -9 7 -17 15 -17 8 0 15 -5 15&#xA;-12 0 -6 3 -8 7 -5 3 4 13 1 22 -5 16 -13 -16 27 -57 68 -27 28 -43 33 -19 6z"></path>
<path d="M5763 6383 c-16 -6 -17 -43 -2 -43 5 0 7 5 4 10 -4 6 -1 17 5 25 13&#xA;16 12 16 -7 8z"></path>
<path d="M8046 6382 c-4 -7 -2 -12 4 -12 8 0 8 -6 0 -20 -7 -13 -7 -20 -1 -20&#xA;6 0 6 -11 -1 -30 -12 -36 -4 -75 17 -84 13 -4 15 7 15 67 0 72 -18 124 -34 99z"></path>
<path d="M6816 6366 c7 -19 20 -21 30 -3 4 6 4 9 -1 5 -4 -4 -14 -3 -22 4 -11&#xA;8 -12 7 -7 -6z"></path>
<path d="M6770 6334 c-7 -7 -9 -17 -6 -22 8 -14 53 -2 53 13 0 19 -34 26 -47&#xA;9z"></path>
<path d="M7936 6305 c-3 -8 -1 -15 3 -15 5 0 11 7 15 15 3 8 1 15 -3 15 -5 0&#xA;-11 -7 -15 -15z"></path>
<path d="M5501 6225 l-72 -85 98 2 c55 1 76 3 48 5 -63 5 -88 25 -73 59 6 13&#xA;15 21 21 17 6 -3 7 -1 3 5 -3 6 -2 13 3 17 12 7 54 65 48 65 -3 0 -37 -38 -76&#xA;-85z"></path>
<path d="M6736 6292 c-3 -5 1 -9 9 -9 8 0 15 4 15 9 0 4 -4 8 -9 8 -6 0 -12&#xA;-4 -15 -8z"></path>
<path d="M6695 6269 c-11 -16 -1 -19 13 -3 7 8 8 14 3 14 -5 0 -13 -5 -16 -11z"></path>
<path d="M7934 6246 c-3 -19 -2 -41 3 -49 7 -12 12 -11 30 7 l22 21 -24 28&#xA;-24 27 -7 -34z"></path>
<path d="M7813 6245 c0 -8 3 -13 6 -10 10 11 39 -80 29 -92 -14 -18 30 -45 54&#xA;-32 10 5 18 14 18 20 0 6 5 7 10 4 28 -17 1 16 -55 68 -36 33 -62 51 -62 42z"></path>
<path d="M6310 6226 c0 -9 -5 -16 -11 -16 -5 0 -9 -10 -7 -22 2 -13 -1 -23 -7&#xA;-24 -5 0 -17 -3 -25 -7 -8 -3 -22 -8 -30 -11 -8 -3 24 -5 73 -4 48 0 87 2 87&#xA;4 0 1 -18 24 -40 49 -23 27 -40 40 -40 31z m45 -66 c-7 -12 -45 -14 -45 -2 0&#xA;4 11 9 26 10 14 1 23 -2 19 -8z"></path>
<path d="M6688 6228 c-10 -6 -9 -8 4 -8 9 0 18 -6 20 -12 3 -7 7 -3 10 8 6 22&#xA;-10 28 -34 12z"></path>
<path d="M6593 5890 c0 -190 3 -329 6 -310 4 20 12 34 19 33 7 -2 12 1 12 7 0&#xA;6 8 10 18 11 12 0 10 3 -8 10 -15 6 -20 13 -14 17 6 4 10 25 9 47 -3 51 -2 50&#xA;-20 35 -13 -11 -15 -2 -15 74 0 48 4 85 9 82 5 -3 11 3 14 15 4 16 3 18 -9 8&#xA;-12 -10 -14 0 -13 62 0 51 3 68 9 54 8 -19 9 -19 9 3 1 12 -3 22 -9 22 -5 0&#xA;-10 5 -10 11 0 5 4 8 9 5 5 -3 14 1 21 9 7 8 17 12 23 8 6 -3 7 -1 3 5 -4 7&#xA;-13 12 -20 12 -15 0 -16 42 -1 52 6 4 0 8 -12 8 -17 0 -23 7 -26 33 -2 17 -4&#xA;-123 -4 -313z"></path>
<path d="M6719 6163 c-13 -16 -12 -17 4 -4 9 7 17 15 17 17 0 8 -8 3 -21 -13z"></path>
<path d="M5232 6130 c0 -14 2 -19 5 -12 2 6 2 18 0 25 -3 6 -5 1 -5 -13z"></path>
<path d="M5624 6093 c-54 -68 -63 -84 -25 -43 18 19 44 45 58 57 13 11 20 24&#xA;14 27 -5 4 -26 -15 -47 -41z"></path>
<path d="M6185 6100 c10 -11 20 -20 23 -20 3 0 -3 9 -13 20 -10 11 -20 20 -23&#xA;20 -3 0 3 -9 13 -20z"></path>
<path d="M5228 6003 c-3 -54 -1 -105 3 -113 5 -9 9 33 9 98 0 61 -2 112 -4&#xA;112 -2 0 -6 -44 -8 -97z"></path>
<path d="M6201 6067 c2 -1 13 -9 24 -17 19 -14 19 -14 6 3 -7 9 -18 17 -24 17&#xA;-6 0 -8 -1 -6 -3z"></path>
<path d="M6904 6025 c-3 -8 -4 -20 -2 -27 3 -7 7 -1 10 15 6 29 1 36 -8 12z"></path>
<path d="M7012 6025 c9 -11 28 -40 42 -65 14 -25 26 -39 26 -32 0 7 -7 23 -16&#xA;36 -10 16 -12 26 -4 31 6 3 8 11 4 16 -3 5 -10 7 -15 3 -6 -3 -20 2 -32 13&#xA;-22 18 -22 18 -5 -2z"></path>
<path d="M7541 5992 c-1 -19 -19 -70 -42 -115 -22 -44 -34 -75 -26 -69 12 10&#xA;16 9 21 -3 3 -8 3 -23 -1 -32 -3 -10 13 0 36 22 34 32 45 38 59 29 13 -9 17&#xA;-25 17 -70 0 -48 3 -59 18 -62 21 -4 22 14 2 34 -8 9 -15 20 -15 26 0 5 7 8&#xA;15 4 29 -11 17 45 -16 75 -28 24 -59 30 -59 10 0 -4 -7 -8 -15 -8 -30 0 -10&#xA;55 20 56 14 0 19 31 5 31 -7 0 -10 8 -7 19 2 11 1 35 -3 53 l-8 33 -1 -33z"></path>
<path d="M6611 5994 c0 -11 3 -14 6 -6 3 7 2 16 -1 19 -3 4 -6 -2 -5 -13z"></path>
<path d="M7398 5978 c-25 -42 -41 -78 -37 -83 3 -2 17 20 32 50 27 56 30 73 5&#xA;33z"></path>
<path d="M8069 5978 c-1 -7 -2 -26 -3 -43 -1 -16 -5 -36 -10 -44 -6 -9 -5 -12&#xA;2 -7 5 3 13 0 15 -6 3 -7 6 15 6 50 1 34 -1 62 -4 62 -3 0 -6 -6 -6 -12z"></path>
<path d="M6287 5967 c-3 -7 8 -20 27 -31 l31 -18 -25 29 c-14 15 -26 29 -26&#xA;31 -1 2 -4 -3 -7 -11z"></path>
<path d="M5489 5928 c-105 -125 -140 -170 -115 -149 l26 25 -2 -25 c-3 -23 -1&#xA;-24 67 -27 39 -1 108 1 155 6 73 8 77 10 32 11 -29 0 -51 5 -48 10 5 8 -15 8&#xA;-34 1 -3 -1 -9 -1 -15 0 -39 8 -56 6 -51 -6 4 -10 -4 -14 -32 -13 -20 1 -29 3&#xA;-19 6 9 2 15 9 12 13 -3 5 6 12 21 16 23 6 25 9 12 18 -19 14 -16 50 5 74 9&#xA;10 17 22 17 27 0 5 -6 0 -14 -11 -8 -10 -17 -16 -21 -12 -4 4 5 23 20 42 38&#xA;50 27 45 -16 -6z"></path>
<path d="M6914 5916 c2 -44 7 -61 21 -68 13 -8 16 -7 11 1 -4 6 -2 11 4 11 6&#xA;0 4 13 -6 32 -9 18 -20 44 -24 58 -5 16 -7 5 -6 -34z"></path>
<path d="M6610 5949 c0 -5 5 -7 10 -4 6 3 10 8 10 11 0 2 -4 4 -10 4 -5 0 -10&#xA;-5 -10 -11z"></path>
<path d="M6376 5865 c4 -16 -4 -26 -35 -43 -46 -26 -47 -28 -25 -36 10 -4 13&#xA;-2 8 6 -5 7 1 9 19 4 15 -3 29 -1 32 5 4 6 13 8 21 5 9 -3 11 0 7 12 -3 9 7 4&#xA;21 -13 36 -40 15 0 -23 45 -22 25 -29 29 -25 15z"></path>
<path d="M6683 5843 c4 -7 0 -13 -10 -15 -15 -3 -14 -5 4 -10 29 -8 38 6 16&#xA;23 -10 8 -14 9 -10 2z"></path>
<path d="M6860 5829 c0 -5 5 -7 11 -3 6 3 24 -7 41 -22 30 -28 30 -28 14 -3&#xA;-9 14 -13 29 -9 32 3 4 -8 7 -25 7 -18 0 -32 -5 -32 -11z"></path>
<path d="M6820 5805 c-13 -16 -6 -47 15 -65 10 -9 15 -6 20 11 4 13 2 24 -5&#xA;29 -7 4 -10 15 -7 24 8 20 -6 21 -23 1z"></path>
<path d="M7155 5811 c-3 -6 -11 -9 -16 -6 -5 4 -9 4 -9 1 0 -16 96 -196 107&#xA;-200 7 -3 10 1 7 8 -3 8 11 46 30 85 20 39 36 73 36 75 0 3 -11 -5 -25 -18&#xA;-14 -13 -25 -32 -25 -42 0 -26 -15 -47 -34 -50 -9 -1 -14 1 -12 5 3 4 1 13 -4&#xA;21 -5 9 -5 19 1 26 10 12 -4 28 -23 29 -5 0 -7 3 -5 7 1 4 -7 14 -18 22 -17&#xA;13 -18 17 -5 25 8 6 12 13 8 16 -3 4 -9 1 -13 -4z"></path>
<path d="M6986 5784 c-8 -20 0 -32 14 -18 5 5 5 15 1 22 -6 11 -10 10 -15 -4z"></path>
<path d="M6690 5775 c-10 -12 -10 -19 -2 -27 7 -7 12 -10 13 -7 0 2 2 14 5 27&#xA;5 26 1 28 -16 7z"></path>
<path d="M6038 5773 c12 -2 30 -2 40 0 9 3 -1 5 -23 4 -22 0 -30 -2 -17 -4z"></path>
<path d="M6001 5754 c0 -11 3 -14 6 -6 3 7 2 16 -1 19 -3 4 -6 -2 -5 -13z"></path>
<path d="M6190 5759 c47 -4 108 -7 135 -6 48 0 47 0 -15 7 -36 4 -96 7 -135 7&#xA;l-70 0 85 -8z"></path>
<path d="M5228 5725 c-4 -16 -2 -31 3 -33 5 -2 9 -18 10 -35 1 -18 5 -43 9&#xA;-57 13 -40 11 3 -4 85 -10 59 -13 65 -18 40z"></path>
<path d="M5348 5743 c6 -2 18 -2 25 0 6 3 1 5 -13 5 -14 0 -19 -2 -12 -5z"></path>
<path d="M5812 5720 c0 -19 2 -27 5 -17 2 9 2 25 0 35 -3 9 -5 1 -5 -18z"></path>
<path d="M7026 5725 c7 -18 6 -19 -11 -5 -17 14 -18 14 -7 -7 7 -12 17 -25 22&#xA;-28 17 -10 62 -86 56 -93 -4 -3 -22 9 -40 27 -33 32 -34 33 -45 13 -6 -12 -11&#xA;-28 -11 -36 0 -9 -7 -16 -15 -16 -9 0 -18 -7 -21 -15 -4 -8 -10 -12 -15 -9&#xA;-15 9 -10 -13 6 -26 13 -11 14 -10 9 4 -4 12 0 16 15 16 12 0 24 7 27 15 5 12&#xA;10 13 20 4 8 -6 11 -16 7 -22 -4 -7 0 -8 13 -3 10 4 31 10 47 13 15 3 30 9 33&#xA;14 2 5 -14 41 -36 81 -43 76 -67 109 -54 73z"></path>
<path d="M7566 5724 c-3 -9 -2 -23 4 -32 7 -14 9 -10 10 16 0 35 -5 41 -14 16z"></path>
<path d="M6655 5720 c-18 -6 -18 -7 -1 -13 14 -6 16 -10 7 -21 -21 -25 6 -28&#xA;34 -4 l26 23 -24 11 c-13 6 -32 8 -42 4z"></path>
<path d="M8072 5710 c0 -14 2 -19 5 -12 2 6 2 18 0 25 -3 6 -5 1 -5 -13z"></path>
<path d="M7399 5688 c-1 -7 -1 -16 0 -20 0 -5 -3 -8 -9 -8 -5 0 -26 -33 -46&#xA;-72 -44 -89 -41 -86 -59 -62 -20 26 -19 -2 1 -36 8 -14 13 -18 11 -10 -2 9 15&#xA;28 42 47 29 21 39 33 28 33 -15 0 -14 6 10 53 26 51 38 87 28 87 -3 0 -6 -6&#xA;-6 -12z"></path>
<path d="M7550 5675 c0 -8 4 -15 10 -15 5 0 7 7 4 15 -4 8 -8 15 -10 15 -2 0&#xA;-4 -7 -4 -15z"></path>
<path d="M5813 5663 c-8 -3 -13 -23 -13 -52 0 -40 3 -47 20 -47 13 0 20 7 21&#xA;21 1 11 2 32 3 47 1 15 -1 25 -5 22 -4 -2 -9 0 -11 4 -1 5 -9 7 -15 5z"></path>
<path d="M6011 5637 c-1 -22 -24 -47 -43 -47 -7 0 -19 -4 -26 -9 -11 -7 -10&#xA;-11 3 -24 15 -15 50 -13 41 2 -3 4 3 12 13 18 14 9 17 7 19 -15 3 -33 12 -42&#xA;11 -11 0 33 -16 108 -18 86z"></path>
<path d="M8056 5623 c-13 -33 -24 -103 -16 -103 5 0 13 26 18 58 10 59 9 76&#xA;-2 45z"></path>
<path d="M7394 5609 c-19 -22 -19 -22 3 -10 24 12 39 31 25 31 -5 0 -17 -10&#xA;-28 -21z"></path>
<path d="M5279 5517 c5 -5 24 -7 42 -5 33 3 33 4 -8 8 -23 3 -39 2 -34 -3z"></path>
<path d="M5362 5515 c7 -8 357 -9 365 -2 3 4 -78 7 -182 7 -104 0 -186 -2&#xA;-183 -5z"></path>
<path d="M6153 5513 c65 -2 168 -2 230 0 62 1 9 3 -118 3 -126 0 -177 -2 -112&#xA;-3z"></path>
<path d="M8013 5486 c-17 -16 -20 -25 -12 -39 6 -9 7 -26 4 -37 -4 -11 -4 -20&#xA;-1 -20 6 0 39 110 34 114 -1 2 -13 -6 -25 -18z"></path>
<path d="M6148 5489 c-9 -5 -15 -16 -12 -24 8 -19 20 -12 27 15 3 11 4 20 4&#xA;20 -1 0 -10 -5 -19 -11z"></path>
<path d="M6186 5483 c-4 -9 1 -10 20 -2 14 5 30 6 36 3 7 -4 8 -2 4 4 -9 15&#xA;-54 11 -60 -5z"></path>
<path d="M6275 5490 c3 -5 8 -10 11 -10 2 0 4 5 4 10 0 6 -5 10 -11 10 -5 0&#xA;-7 -4 -4 -10z"></path>
<path d="M6355 5490 c-3 -5 -1 -10 4 -10 6 0 11 5 11 10 0 6 -2 10 -4 10 -3 0&#xA;-8 -4 -11 -10z"></path>
<path d="M7156 5481 c-4 -6 -1 -18 7 -26 9 -8 17 -20 20 -27 2 -7 7 -11 10 -8&#xA;3 3 -3 20 -12 39 -11 21 -21 30 -25 22z"></path>
<path d="M7376 5312 c39 -77 71 -127 75 -121 10 16 60 21 76 7 10 -8 12 -7 8&#xA;3 -4 8 -36 39 -72 69 -36 30 -74 67 -85 83 -42 58 -9 42 87 -43 96 -85 100&#xA;-87 121 -71 27 20 23 29 -12 29 -14 0 -30 6 -35 13 -5 8 -9 10 -9 4 0 -5 -5&#xA;-2 -11 8 -6 9 -14 15 -18 13 -4 -3 -30 15 -57 40 -49 45 -104 81 -104 67 0 -4&#xA;-7 2 -16 13 -8 10 15 -41 52 -114z"></path>
<path d="M5232 5393 c2 -9 10 -18 18 -20 12 -4 13 -3 1 5 -7 5 -10 15 -7 21 4&#xA;6 2 11 -4 11 -6 0 -10 -8 -8 -17z"></path>
<path d="M7216 5365 c4 -8 1 -22 -6 -30 -7 -9 -10 -18 -6 -22 3 -3 6 -1 6 5 0&#xA;6 12 0 27 -14 35 -32 39 -25 14 24 -20 40 -47 68 -35 37z"></path>
<path d="M5240 5339 c0 -5 5 -7 10 -4 6 3 10 8 10 11 0 2 -4 4 -10 4 -5 0 -10&#xA;-5 -10 -11z"></path>
<path d="M7976 5335 c-9 -26 -7 -32 5 -12 6 10 9 21 6 23 -2 3 -7 -2 -11 -11z"></path>
<path d="M5190 5332 c1 -4 17 -36 36 -72 19 -36 32 -56 28 -45 -4 11 -7 39 -6&#xA;63 2 27 -1 41 -8 37 -5 -3 -10 -2 -10 3 0 5 -9 12 -20 15 -11 3 -20 2 -20 -1z"></path>
<path d="M6990 5329 c0 -5 -4 -7 -10 -4 -5 3 -10 2 -10 -3 0 -5 -16 -17 -35&#xA;-28 -19 -10 -35 -22 -35 -26 0 -5 -17 -8 -37 -9 -21 0 -31 -3 -23 -6 8 -3 22&#xA;-12 31 -19 13 -12 24 -5 80 46 35 32 58 59 52 60 -7 0 -13 -5 -13 -11z"></path>
<path d="M6978 5262 c-36 -31 -65 -61 -64 -67 1 -5 16 -13 33 -17 18 -5 33&#xA;-16 35 -26 2 -10 20 15 46 65 39 76 41 81 20 75 -21 -5 -22 -4 -9 11 22 28 9&#xA;19 -61 -41z"></path>
<path d="M7625 5250 c3 -5 -1 -20 -9 -32 -13 -21 -13 -25 3 -45 20 -24 33 -21&#xA;24 5 -4 10 -2 13 5 8 7 -4 10 -2 8 6 -3 7 -7 25 -10 41 -4 15 -11 27 -17 27&#xA;-6 0 -7 -4 -4 -10z"></path>
<path d="M7183 5225 c-6 -7 -10 -21 -9 -31 2 -11 1 -13 -1 -6 -3 7 -8 10 -13&#xA;7 -4 -3 -6 5 -3 17 9 35 -1 20 -42 -62 l-37 -75 29 28 c16 15 39 27 51 27 27&#xA;0 44 31 40 74 -2 27 -5 31 -15 21z"></path>
<path d="M7301 5215 c-1 -5 3 -17 9 -25 5 -9 5 -19 -1 -27 -13 -15 -2 -36 16&#xA;-30 12 5 45 -51 45 -78 0 -8 4 -15 10 -15 5 0 13 -18 16 -39 11 -68 82 -112&#xA;112 -69 7 10 21 18 32 18 14 0 18 6 15 25 -1 14 -6 29 -10 33 -4 4 -4 -3 -1&#xA;-15 6 -19 1 -25 -33 -43 -22 -11 -45 -20 -50 -20 -5 0 -44 66 -85 148 -41 81&#xA;-75 143 -75 137z"></path>
<path d="M5270 5171 c5 -11 15 -23 21 -27 6 -3 3 5 -6 20 -20 30 -30 35 -15 7z"></path>
<path d="M7847 5095 c-31 -47 -52 -83 -47 -80 10 6 52 66 89 128 41 67 16 39&#xA;-42 -48z"></path>
<path d="M7505 5070 c9 -16 18 -30 21 -30 2 0 -2 14 -11 30 -9 17 -18 30 -21&#xA;30 -2 0 2 -13 11 -30z"></path>
<path d="M5407 4974 c17 -21 46 -52 64 -69 l33 -30 -32 38 c-18 21 -30 42 -27&#xA;48 4 5 1 9 -5 9 -6 0 -8 6 -4 13 4 6 3 9 -1 4 -5 -4 -20 0 -34 10 -24 15 -23&#xA;14 6 -23z"></path>
<path d="M7027 4975 c-9 -19 -15 -35 -12 -35 7 0 37 61 33 66 -3 2 -12 -12&#xA;-21 -31z"></path>
<path d="M7675 4880 c-4 -6 -11 -7 -17 -4 -7 4 -8 2 -4 -4 4 -6 -5 -17 -21&#xA;-26 -36 -18 -89 -74 -79 -83 4 -4 37 23 74 60 37 37 64 67 60 67 -4 0 -10 -5&#xA;-13 -10z"></path>
<path d="M5605 4770 c10 -11 20 -20 23 -20 3 0 -3 9 -13 20 -10 11 -20 20 -23&#xA;20 -3 0 3 -9 13 -20z"></path>
<path d="M5660 4726 c0 -2 8 -10 18 -17 15 -13 16 -12 3 4 -13 16 -21 21 -21&#xA;13z"></path>
<path d="M5700 4696 c0 -2 7 -9 15 -16 9 -7 15 -8 15 -2 0 5 -7 12 -15 16 -8&#xA;3 -15 4 -15 2z"></path>
<path d="M5740 4667 c0 -3 17 -17 37 -33 20 -15 33 -23 29 -16 -8 13 -66 56&#xA;-66 49z"></path>
<path d="M7375 4627 c-11 -7 -34 -22 -52 -34 -17 -13 -36 -23 -41 -23 -5 0&#xA;-17 -10 -28 -21 l-19 -22 25 13 c35 18 140 90 140 95 0 6 -1 6 -25 -8z"></path>
<path d="M5820 4607 c0 -3 12 -12 26 -22 15 -9 23 -12 20 -6 -7 11 -46 35 -46&#xA;28z"></path>
<path d="M5960 4517 c0 -6 119 -77 128 -77 8 0 -21 20 -80 54 -27 16 -48 26&#xA;-48 23z"></path>
<path d="M6100 4436 c0 -3 9 -10 20 -16 11 -6 20 -8 20 -6 0 3 -9 10 -20 16&#xA;-11 6 -20 8 -20 6z"></path>
<path d="M7045 4420 c-3 -6 1 -7 9 -4 18 7 21 14 7 14 -6 0 -13 -4 -16 -10z"></path>
<path d="M6962 4390 l-23 -31 43 22 c51 26 61 34 31 27 -12 -3 -23 -2 -25 4&#xA;-2 5 -14 -5 -26 -22z"></path>
<path d="M6151 4406 c10 -9 69 -36 69 -32 0 6 -55 36 -66 36 -4 0 -5 -2 -3 -4z"></path>
<path d="M6270 4346 c0 -2 7 -7 16 -10 8 -3 12 -2 9 4 -6 10 -25 14 -25 6z"></path>
<path d="M6800 4300 c-30 -16 -50 -29 -45 -29 6 0 35 13 65 29 30 16 51 29 45&#xA;29 -5 0 -35 -13 -65 -29z"></path>
<path d="M6330 4316 c0 -6 89 -46 99 -46 9 1 -24 19 -64 36 -19 8 -35 12 -35&#xA;10z"></path>
<path d="M6640 4230 c-8 -5 -10 -10 -5 -10 6 0 17 5 25 10 8 5 11 10 5 10 -5&#xA;0 -17 -5 -25 -10z"></path>
<path d="M6530 4227 c0 -3 15 -10 32 -16 18 -6 28 -7 23 -2 -12 10 -55 25 -55&#xA;18z"></path>
<path d="M3397 3743 c18 -2 50 -2 70 0 21 2 7 4 -32 4 -38 0 -55 -2 -38 -4z"></path>
<path d="M6123 3742 c-7 -4 20 -6 60 -4 102 4 115 10 27 11 -41 0 -80 -3 -87&#xA;-7z"></path>
<path d="M8613 3743 c20 -2 54 -2 75 0 20 2 3 4 -38 4 -41 0 -58 -2 -37 -4z"></path>
<path d="M9633 3743 c20 -2 54 -2 75 0 20 2 3 4 -38 4 -41 0 -58 -2 -37 -4z"></path>
<path d="M11733 3743 c20 -2 54 -2 75 0 20 2 3 4 -38 4 -41 0 -58 -2 -37 -4z"></path>
<path d="M3240 3721 c-58 -19 -120 -48 -120 -57 0 -3 3 -3 8 -1 56 30 128 54&#xA;207 71 12 2 8 4 -10 4 -16 1 -55 -7 -85 -17z"></path>
<path d="M3570 3730 c14 -4 36 -8 50 -8 22 0 22 1 -5 8 -16 4 -39 8 -50 8 -16&#xA;0 -15 -2 5 -8z"></path>
<path d="M8523 3733 c9 -2 23 -2 30 0 6 3 -1 5 -18 5 -16 0 -22 -2 -12 -5z"></path>
<path d="M8778 3733 c7 -3 16 -2 19 1 4 3 -2 6 -13 5 -11 0 -14 -3 -6 -6z"></path>
<path d="M9476 3721 l-49 -17 57 0 c31 1 51 3 44 5 -7 2 5 10 27 17 l40 12&#xA;-35 0 c-19 0 -57 -7 -84 -17z"></path>
<path d="M9798 3733 c7 -3 16 -2 19 1 4 3 -2 6 -13 5 -11 0 -14 -3 -6 -6z"></path>
<path d="M11579 3726 c-25 -7 -54 -18 -65 -24 -17 -10 -15 -11 11 -9 17 1 33&#xA;6 36 11 4 5 20 9 37 10 17 0 28 4 26 8 -2 4 6 9 18 11 19 4 19 4 3 5 -11 0&#xA;-41 -5 -66 -12z"></path>
<path d="M11885 3733 c11 -3 22 -9 25 -14 3 -4 17 -5 30 -2 l25 7 -25 7 c-14&#xA;4 -36 7 -50 7 -20 0 -21 -1 -5 -5z"></path>
<path d="M985 3708 c2 -29 23 -78 25 -58 1 8 3 24 5 35 2 11 -1 23 -8 27 -7 5&#xA;40 7 103 6 l115 -3 5 -445 5 -445 3 453 2 452 -128 0 c-126 0 -128 0 -127 -22z"></path>
<path d="M1950 3243 c0 -267 3 -484 6 -480 3 3 5 211 5 461 -2 456 -2 456 19&#xA;456 14 0 20 5 18 18 -3 16 22 17 391 20 309 2 396 -1 403 -10 5 -9 8 -8 8 5 0&#xA;16 -27 17 -425 17 l-425 0 0 -487z"></path>
<path d="M4500 3165 c0 -311 3 -565 8 -565 4 0 6 142 5 317 -2 220 1 320 8&#xA;330 7 8 8 13 1 13 -6 0 -10 76 -11 216 -1 153 2 214 9 209 6 -4 19 -1 28 7 9&#xA;8 29 14 45 13 15 0 27 3 27 7 0 4 53 9 118 11 93 2 81 3 -60 5 l-178 2 0 -565z"></path>
<path d="M4868 3723 c7 -3 16 -2 19 1 4 3 -2 6 -13 5 -11 0 -14 -3 -6 -6z"></path>
<path d="M4925 3724 c72 -8 155 -8 155 -1 0 4 -42 6 -92 5 -51 0 -79 -3 -63&#xA;-4z"></path>
<path d="M5971 3705 c-35 -13 -68 -28 -75 -35 -6 -6 11 -2 37 9 27 12 58 21&#xA;69 21 10 0 26 7 34 15 20 20 11 18 -65 -10z"></path>
<path d="M6370 3726 c0 -3 15 -9 33 -14 17 -6 41 -13 52 -17 12 -4 10 -1 -5 8&#xA;-27 15 -80 30 -80 23z"></path>
<path d="M6980 3468 c0 -144 2 -259 5 -257 5 5 16 79 14 94 0 6 -3 84 -6 174&#xA;-3 127 -2 161 8 155 7 -4 10 -3 5 4 -3 6 -2 13 4 17 5 3 10 15 10 26 0 13 7&#xA;19 23 20 21 0 21 1 2 9 -13 6 12 9 73 9 56 1 91 -3 87 -8 -3 -6 1 -13 9 -18&#xA;10 -6 16 -29 19 -73 3 -59 3 -57 5 23 l2 87 -130 0 -130 0 0 -262z m30 242 c0&#xA;-5 -2 -10 -4 -10 -3 0 -8 5 -11 10 -3 6 -1 10 4 10 6 0 11 -4 11 -10z"></path>
<path d="M7728 3353 c-2 -208 -6 -385 -9 -393 -3 -8 -4 -12 -2 -7 3 4 10 7 16&#xA;7 9 0 12 90 11 352 -1 194 1 336 3 314 l4 -39 17 24 c9 13 16 28 14 32 -1 5 2&#xA;6 7 3 5 -3 11 3 14 14 6 23 27 27 27 6 0 -8 4 -17 9 -20 14 -9 1 32 -15 45&#xA;-23 19 -16 28 24 32 20 2 2 4 -40 5 l-77 2 -3 -377z"></path>
<path d="M7918 3723 c12 -2 30 -2 40 0 9 3 -1 5 -23 4 -22 0 -30 -2 -17 -4z"></path>
<path d="M7985 3365 c0 -203 1 -285 2 -182 2 104 2 270 0 370 -1 100 -2 16 -2&#xA;-188z"></path>
<path d="M8478 3723 c7 -3 16 -2 19 1 4 3 -2 6 -13 5 -11 0 -14 -3 -6 -6z"></path>
<path d="M8818 3723 c6 -2 18 -2 25 0 6 3 1 5 -13 5 -14 0 -19 -2 -12 -5z"></path>
<path d="M10280 3166 l0 -563 63 -1 c50 -1 57 1 33 8 -16 5 -33 7 -37 5 -4 -3&#xA;-12 9 -18 26 -6 17 -15 28 -20 25 -14 -9 -13 564 0 581 6 6 7 18 3 24 -5 8 -3&#xA;9 6 4 10 -6 12 -4 7 8 -4 11 -2 14 9 10 7 -3 14 0 14 6 0 6 -5 11 -11 11 -5 0&#xA;-7 5 -4 10 4 6 11 8 16 5 5 -4 9 0 9 8 0 9 -9 13 -25 12 -20 -3 -25 1 -25 21&#xA;0 21 3 22 23 15 22 -8 23 -7 19 15 -3 16 -10 23 -18 20 -21 -8 -34 27 -34 94&#xA;0 43 4 60 12 58 6 -2 13 -11 16 -19 3 -11 2 -11 -7 1 -8 11 -10 6 -8 -23 2&#xA;-44 14 -48 24 -9 11 40 10 46 -7 60 -13 11 -13 13 3 26 9 7 17 18 17 25 0 6 8&#xA;16 19 23 15 9 17 17 11 40 l-9 28 368 0 c285 0 371 -3 379 -13 6 -7 12 -30 15&#xA;-52 3 -33 4 -29 5 18 l2 57 -425 0 -425 0 0 -564z m17 472 c-3 -8 -6 -5 -6 6&#xA;-1 11 2 17 5 13 3 -3 4 -12 1 -19z m0 -50 c-3 -7 -5 -2 -5 12 0 14 2 19 5 13&#xA;2 -7 2 -19 0 -25z"></path>
<path d="M5110 3711 c14 -4 43 -11 65 -14 l40 -6 -35 14 c-19 7 -48 13 -65 13&#xA;-29 0 -29 0 -5 -7z"></path>
<path d="M8373 3690 c-111 -56 -181 -156 -191 -275 -5 -71 16 -156 49 -195 11&#xA;-14 18 -19 14 -12 -4 8 1 20 14 28 27 19 27 32 -1 37 -22 3 -22 4 5 15 15 6&#xA;27 16 27 22 0 7 -6 8 -17 2 -24 -13 -53 -7 -72 14 -15 15 -14 16 9 11 l25 -6&#xA;-23 19 c-19 16 -22 26 -18 62 2 24 5 50 5 59 1 9 9 19 19 22 11 2 21 14 25 26&#xA;3 11 1 19 -3 16 -4 -3 -6 4 -3 15 3 11 10 23 16 27 7 4 8 0 3 -12 -5 -15 -4&#xA;-16 9 -5 13 11 13 15 3 21 -11 8 -5 13 13 11 4 -1 6 4 5 11 0 7 1 12 4 12 3 0&#xA;16 10 29 22 13 12 29 20 34 16 6 -3 7 -1 3 6 -8 12 49 41 85 44 21 1 26 17 6&#xA;17 -8 0 -41 -14 -74 -30z"></path>
<path d="M4648 3703 c7 -3 16 -2 19 1 4 3 -2 6 -13 5 -11 0 -14 -3 -6 -6z"></path>
<path d="M8905 3700 c27 -12 43 -12 25 0 -8 5 -22 9 -30 9 -10 0 -8 -3 5 -9z"></path>
<path d="M1105 3690 c-3 -5 1 -10 10 -10 9 0 13 5 10 10 -3 6 -8 10 -10 10 -2&#xA;0 -7 -4 -10 -10z"></path>
<path d="M10380 3689 c0 -5 5 -7 10 -4 6 3 10 8 10 11 0 2 -4 4 -10 4 -5 0&#xA;-10 -5 -10 -11z"></path>
<path d="M9375 3680 c-3 -6 1 -7 9 -4 18 7 21 14 7 14 -6 0 -13 -4 -16 -10z"></path>
<path d="M9986 3675 c10 -8 24 -15 31 -15 6 0 19 -10 27 -22 11 -16 16 -18 16&#xA;-7 0 8 -17 25 -39 37 -44 25 -64 29 -35 7z"></path>
<path d="M7890 3670 l25 -8 -25 -2 c-21 -2 -22 -3 -5 -7 11 -3 23 -10 26 -15&#xA;4 -6 17 -7 29 -3 22 7 22 7 -6 26 -16 10 -38 18 -49 18 -17 -1 -16 -2 5 -9z"></path>
<path d="M6013 3663 c-33 -6 -28 -24 6 -21 19 1 27 7 24 15 -3 7 -6 12 -7 12&#xA;0 -1 -11 -4 -23 -6z"></path>
<path d="M9006 3653 c18 -17 19 -21 7 -50 -9 -24 -17 -31 -30 -27 -15 5 -16 4&#xA;-3 -5 22 -16 27 -14 38 17 5 15 13 34 16 43 5 11 -2 19 -21 27 -28 12 -28 12&#xA;-7 -5z"></path>
<path d="M9309 3631 c-51 -45 -85 -106 -99 -181 -17 -89 -15 -97 24 -96 19 1&#xA;38 5 43 9 4 5 -1 5 -12 1 -18 -7 -19 -6 -5 11 11 14 11 17 1 11 -8 -5 -16 -3&#xA;-21 4 -9 15 -2 42 9 36 4 -3 12 4 19 15 12 19 5 25 -23 19 -5 -1 -2 7 7 17 21&#xA;24 33 63 19 63 -21 0 -11 29 23 64 18 20 40 35 47 33 8 -2 10 -2 6 1 -4 2 -3&#xA;10 4 18 21 25 2 15 -42 -25z m-82 -193 c-3 -7 -5 -2 -5 12 0 14 2 19 5 13 2&#xA;-7 2 -19 0 -25z m-10 -40 c-3 -8 -6 -5 -6 6 -1 11 2 17 5 13 3 -3 4 -12 1 -19z"></path>
<path d="M982 3640 c0 -14 2 -19 5 -12 2 6 2 18 0 25 -3 6 -5 1 -5 -13z"></path>
<path d="M3806 3646 c3 -9 2 -16 -3 -16 -6 0 -10 -15 -10 -32 l-1 -33 14 30&#xA;c16 36 17 52 4 60 -6 3 -7 -1 -4 -9z"></path>
<path d="M10435 3650 c3 -5 8 -10 11 -10 2 0 4 5 4 10 0 6 -5 10 -11 10 -5 0&#xA;-7 -4 -4 -10z"></path>
<path d="M5829 3623 c-13 -17 -13 -17 6 -3 11 8 22 16 24 17 2 2 0 3 -6 3 -6&#xA;0 -17 -8 -24 -17z"></path>
<path d="M6608 3601 c24 -22 45 -41 48 -41 11 0 -8 20 -49 51 l-42 32 43 -42z"></path>
<path d="M11383 3618 c-11 -13 -28 -34 -36 -48 -16 -24 -15 -26 3 -27 13 -1&#xA;18 2 13 10 -5 8 -2 8 9 -1 13 -10 17 -9 23 10 4 13 7 26 6 31 -1 4 3 7 8 7 6&#xA;0 9 9 8 20 -2 26 -9 25 -34 -2z"></path>
<path d="M12135 3619 c-4 -6 -5 -12 -2 -15 2 -3 7 2 10 11 7 17 1 20 -8 4z"></path>
<path d="M7795 3612 c3 -3 -1 -12 -8 -20 -10 -13 -9 -14 11 -3 25 13 29 28 7&#xA;28 -8 0 -13 -3 -10 -5z"></path>
<path d="M10370 3616 c0 -2 7 -7 16 -10 8 -3 12 -2 9 4 -6 10 -25 14 -25 6z"></path>
<path d="M3026 3582 l-19 -27 24 22 c12 12 21 24 18 27 -2 2 -13 -8 -23 -22z"></path>
<path d="M5372 3580 c13 -19 24 -46 24 -59 0 -24 27 -51 40 -39 9 9 -38 88&#xA;-67 113 -21 19 -21 18 3 -15z"></path>
<path d="M5762 3566 c-47 -51 -96 -125 -88 -134 3 -3 6 0 6 8 0 10 4 10 17 -1&#xA;15 -12 16 -12 10 3 -3 10 -1 20 5 24 7 5 8 2 3 -6 -5 -9 -4 -11 3 -6 7 4 12&#xA;16 12 27 0 10 6 19 13 19 9 0 9 2 0 8 -17 10 11 52 34 52 9 0 13 3 10 7 -4 3&#xA;0 15 10 25 9 10 14 18 11 18 -3 0 -24 -20 -46 -44z"></path>
<path d="M2792 3575 c0 -16 2 -22 5 -12 2 9 2 23 0 30 -3 6 -5 -1 -5 -18z"></path>
<path d="M12116 3575 c-3 -9 -6 -22 -5 -28 0 -7 5 -1 10 12 5 13 8 26 5 28 -2&#xA;2 -6 -3 -10 -12z"></path>
<path d="M10025 3569 c-4 -6 -5 -12 -2 -15 2 -3 7 2 10 11 7 17 1 20 -8 4z"></path>
<path d="M7760 3560 c0 -5 5 -10 11 -10 5 0 7 5 4 10 -3 6 -8 10 -11 10 -2 0&#xA;-4 -4 -4 -10z"></path>
<path d="M11118 3553 c-2 -10 -13 -19 -26 -19 -12 -1 -34 -3 -49 -4 l-28 -2&#xA;30 -7 c17 -4 40 -4 51 0 12 4 25 5 28 2 3 -4 6 6 6 20 0 31 -7 36 -12 10z"></path>
<path d="M8986 3535 c-9 -26 -7 -32 5 -12 6 10 9 21 6 23 -2 3 -7 -2 -11 -11z"></path>
<path d="M3330 3530 c-10 -6 -2 -7 25 -3 49 7 58 13 19 13 -16 0 -36 -5 -44&#xA;-10z"></path>
<path d="M3488 3533 c7 -3 16 -2 19 1 4 3 -2 6 -13 5 -11 0 -14 -3 -6 -6z"></path>
<path d="M4784 3531 c3 -5 -3 -11 -14 -14 -19 -5 -20 -13 -18 -194 l3 -188 2&#xA;188 3 187 132 0 c137 0 175 8 50 11 -40 1 -72 6 -72 11 0 5 -6 6 -12 1 -20&#xA;-12 -48 -14 -48 -3 0 6 -7 10 -16 10 -8 0 -13 -4 -10 -9z"></path>
<path d="M6162 3527 c-30 -5 -52 -10 -50 -12 5 -4 149 7 145 12 -9 9 -45 9&#xA;-95 0z"></path>
<path d="M8512 3518 c-23 -11 -40 -23 -38 -26 3 -3 12 0 19 6 7 6 38 18 68 26&#xA;40 11 47 15 24 15 -16 0 -49 -9 -73 -21z"></path>
<path d="M8693 3533 c9 -2 23 -2 30 0 6 3 -1 5 -18 5 -16 0 -22 -2 -12 -5z"></path>
<path d="M9728 3533 c7 -3 16 -2 19 1 4 3 -2 6 -13 5 -11 0 -14 -3 -6 -6z"></path>
<path d="M11698 3533 c7 -3 16 -2 19 1 4 3 -2 6 -13 5 -11 0 -14 -3 -6 -6z"></path>
<path d="M11818 3533 c7 -3 16 -2 19 1 4 3 -2 6 -13 5 -11 0 -14 -3 -6 -6z"></path>
<path d="M2982 3492 c-7 -21 -11 -70 -11 -108 1 -38 4 -60 6 -49 3 11 12 24&#xA;20 29 13 7 13 10 2 17 -10 6 -11 9 -1 9 14 0 16 48 2 70 -5 9 -5 17 1 21 6 3&#xA;6 15 1 28 -8 21 -9 20 -20 -17z"></path>
<path d="M3023 3515 c-3 -9 -3 -18 -1 -21 3 -3 8 4 11 16 6 23 -1 27 -10 5z"></path>
<path d="M6680 3526 c0 -2 8 -10 18 -17 15 -13 16 -12 3 4 -13 16 -21 21 -21&#xA;13z"></path>
<path d="M9811 3516 c36 -10 128 -50 170 -73 3 -2 10 12 16 32 10 33 10 34 -8&#xA;24 -12 -6 -17 -15 -12 -22 4 -7 -2 -5 -12 3 -11 9 -16 10 -11 3 4 -7 2 -13 -4&#xA;-13 -6 0 -13 7 -16 15 -4 8 -9 13 -13 11 -3 -2 -31 4 -61 15 -30 10 -63 19&#xA;-75 18 -11 0 1 -6 26 -13z"></path>
<path d="M3590 3514 c8 -4 34 -15 58 -25 23 -10 42 -16 42 -15 0 10 -50 34&#xA;-80 40 -19 3 -28 3 -20 0z"></path>
<path d="M6271 3516 c2 -2 18 -6 34 -10 22 -5 26 -4 15 4 -14 9 -59 15 -49 6z"></path>
<path d="M8839 3499 c44 -20 62 -20 39 -2 -7 6 -29 13 -48 16 -34 6 -34 5 9&#xA;-14z"></path>
<path d="M11603 3507 c-24 -14 -73 -81 -73 -101 0 -8 7 -16 15 -20 11 -4 15 2&#xA;15 25 0 41 15 66 53 89 35 21 26 27 -10 7z"></path>
<path d="M11925 3510 c27 -12 43 -12 25 0 -8 5 -22 9 -30 9 -10 0 -8 -3 5 -9z"></path>
<path d="M2201 3494 c0 -11 3 -14 6 -6 3 7 2 16 -1 19 -3 4 -6 -2 -5 -13z"></path>
<path d="M6070 3500 c-8 -5 -10 -10 -5 -10 6 0 17 5 25 10 8 5 11 10 5 10 -5&#xA;0 -17 -5 -25 -10z"></path>
<path d="M10529 3503 c-1 -5 -1 -16 0 -25 1 -10 -4 -18 -11 -18 -18 0 -41 -37&#xA;-28 -45 6 -4 8 -10 5 -15 -3 -5 3 -11 14 -15 11 -3 22 -14 24 -23 3 -9 5 20 6&#xA;66 0 45 -1 82 -4 82 -3 0 -6 -3 -6 -7z"></path>
<path d="M12081 3483 c-10 -26 -10 -27 4 -9 8 11 15 23 15 28 0 15 -7 8 -19&#xA;-19z"></path>
<path d="M6384 3471 c26 -18 50 -31 52 -29 4 5 -57 46 -81 54 -11 3 2 -8 29&#xA;-25z"></path>
<path d="M11336 3492 c-2 -4 -1 -14 5 -22 5 -8 9 -13 10 -10 0 3 2 13 4 23 3&#xA;17 -10 24 -19 9z"></path>
<path d="M12003 3479 c41 -22 58 -19 37 6 -7 8 -27 15 -44 15 l-31 -1 38 -20z"></path>
<path d="M6710 3481 c0 -5 7 -15 17 -22 15 -13 15 -12 4 9 -12 23 -21 28 -21&#xA;13z"></path>
<path d="M5156 3450 c12 -14 26 -34 32 -45 6 -11 12 -14 12 -7 0 7 -15 27 -32&#xA;45 -18 18 -23 21 -12 7z"></path>
<path d="M5979 3443 c-38 -35 -99 -126 -99 -148 0 -5 14 15 30 45 16 30 51 74&#xA;77 98 26 23 44 42 40 42 -4 0 -25 -17 -48 -37z"></path>
<path d="M10323 3467 c-28 -12 -30 -27 -4 -27 10 0 22 7 25 16 8 22 5 24 -21&#xA;11z"></path>
<path d="M10430 3472 c0 -5 7 -9 15 -9 8 0 15 4 15 9 0 4 -7 8 -15 8 -8 0 -15&#xA;-4 -15 -8z"></path>
<path d="M2190 3448 c-18 -28 -21 -118 -3 -118 6 0 14 -12 16 -27 2 -16 5 16&#xA;6 70 0 53 0 97 -2 97 -1 0 -9 -10 -17 -22z"></path>
<path d="M8434 3438 c-14 -46 -9 -63 29 -95 51 -43 58 -42 11 2 -33 32 -36 39&#xA;-31 75 6 44 2 52 -9 18z"></path>
<path d="M11300 3390 c0 -88 28 -157 81 -205 l34 -30 -32 35 c-36 40 -42 65&#xA;-17 74 16 6 12 20 -7 22 -5 1 -13 2 -19 3 -12 1 -8 64 5 73 5 4 6 10 2 14 -3&#xA;4 -14 1 -23 -7 -16 -13 -16 -12 -7 6 12 22 8 64 -7 79 -7 7 -10 -16 -10 -64z"></path>
<path d="M3222 3410 c0 -19 2 -27 5 -17 2 9 2 25 0 35 -3 9 -5 1 -5 -18z"></path>
<path d="M5451 3424 c0 -11 3 -14 6 -6 3 7 2 16 -1 19 -3 4 -6 -2 -5 -13z"></path>
<path d="M11341 3414 c0 -11 3 -14 6 -6 3 7 2 16 -1 19 -3 4 -6 -2 -5 -13z"></path>
<path d="M6488 3375 c11 -17 27 -46 34 -65 l15 -35 -1 32 c-1 17 -4 29 -8 26&#xA;-5 -2 -8 -1 -8 4 0 4 -12 22 -26 38 l-26 30 20 -30z"></path>
<path d="M5463 3320 c0 -41 2 -58 4 -37 2 20 2 54 0 75 -2 20 -4 3 -4 -38z"></path>
<path d="M5202 3355 c0 -16 2 -22 5 -12 2 9 2 23 0 30 -3 6 -5 -1 -5 -18z"></path>
<path d="M5622 3308 c-18 -69 -16 -165 3 -165 8 0 16 10 16 21 4 70 3 147 -1&#xA;167 -5 20 -8 16 -18 -23z"></path>
<path d="M5706 3335 c-3 -8 -1 -15 3 -15 5 0 11 7 15 15 3 8 1 15 -3 15 -5 0&#xA;-11 -7 -15 -15z"></path>
<path d="M3026 3325 c-9 -26 -7 -32 5 -12 6 10 9 21 6 23 -2 3 -7 -2 -11 -11z"></path>
<path d="M3264 3325 c11 -8 24 -15 30 -15 5 0 1 7 -10 15 -10 8 -23 14 -29 14&#xA;-5 0 -1 -6 9 -14z"></path>
<path d="M9256 3324 c-20 -20 -20 -30 0 -38 9 -3 12 -11 8 -18 -4 -7 -3 -10 1&#xA;-5 7 6 15 77 9 77 -2 0 -10 -7 -18 -16z"></path>
<path d="M2020 3300 c0 -19 5 -30 14 -30 8 0 17 -6 19 -12 4 -9 6 -10 6 -1 1&#xA;6 -6 18 -14 27 -8 8 -12 22 -9 30 3 9 1 16 -5 16 -6 0 -11 -13 -11 -30z"></path>
<path d="M9513 3323 c4 -3 7 -11 7 -19 0 -8 8 -14 18 -15 9 0 35 -2 57 -4 l40&#xA;-3 -50 17 c-64 23 -82 29 -72 24z"></path>
<path d="M9211 3315 c1 -19 18 -51 18 -35 0 8 -4 22 -9 30 -5 8 -9 11 -9 5z"></path>
<path d="M1975 3300 c-3 -5 -1 -10 4 -10 6 0 11 5 11 10 0 6 -2 10 -4 10 -3 0&#xA;-8 -4 -11 -10z"></path>
<path d="M5202 3285 c0 -16 2 -22 5 -12 2 9 2 23 0 30 -3 6 -5 -1 -5 -18z"></path>
<path d="M6782 3293 c-9 -17 -9 -22 3 -27 9 -3 16 -20 16 -43 2 -26 3 -30 6&#xA;-13 2 14 0 43 -5 65 -8 37 -9 39 -20 18z"></path>
<path d="M11668 3293 c7 -3 16 -2 19 1 4 3 -2 6 -13 5 -11 0 -14 -3 -6 -6z"></path>
<path d="M3378 3283 c7 -3 16 -2 19 1 4 3 -2 6 -13 5 -11 0 -14 -3 -6 -6z"></path>
<path d="M10335 3279 c-10 -15 3 -25 16 -12 7 7 7 13 1 17 -6 3 -14 1 -17 -5z"></path>
<path d="M11715 3280 c11 -5 29 -8 40 -8 16 0 15 2 -5 8 -34 11 -60 11 -35 0z"></path>
<path d="M2492 3273 l227 -3 4 -28 c4 -25 4 -24 6 6 l1 32 -232 -2 -233 -3&#xA;227 -2z"></path>
<path d="M9655 3270 c11 -5 29 -9 40 -9 l20 0 -20 9 c-11 5 -29 9 -40 9 l-20&#xA;0 20 -9z"></path>
<path d="M10550 3274 c29 -8 510 -9 510 -1 0 4 -118 6 -262 6 -145 -1 -256 -3&#xA;-248 -5z"></path>
<path d="M1975 3260 c-3 -5 -1 -10 5 -10 6 0 8 -5 4 -12 -4 -7 -3 -8 4 -4 6 4&#xA;9 13 5 21 -6 18 -10 19 -18 5z"></path>
<path d="M3004 3245 c16 -34 57 -74 101 -100 l30 -17 -25 21 c-61 53 -86 78&#xA;-103 101 l-17 25 14 -30z"></path>
<path d="M11788 3263 c7 -3 16 -2 19 1 4 3 -2 6 -13 5 -11 0 -14 -3 -6 -6z"></path>
<path d="M7228 3178 c-2 -46 0 -94 4 -108 3 -14 7 23 7 83 1 59 -1 107 -3 107&#xA;-3 0 -6 -37 -8 -82z"></path>
<path d="M8718 3253 c7 -3 16 -2 19 1 4 3 -2 6 -13 5 -11 0 -14 -3 -6 -6z"></path>
<path d="M10817 3254 c-10 -11 5 -34 22 -34 14 1 14 2 -2 11 -9 6 -15 14 -12&#xA;20 7 10 2 12 -8 3z"></path>
<path d="M3542 3238 c3 -7 19 -14 38 -16 18 -2 44 -11 57 -19 26 -17 90 -26&#xA;75 -11 -9 9 -147 58 -164 58 -5 0 -8 -6 -6 -12z"></path>
<path d="M8765 3238 c11 -6 35 -15 55 -19 19 -3 53 -14 75 -24 22 -9 35 -12&#xA;29 -5 -11 11 -147 60 -167 60 -7 0 -3 -6 8 -12z"></path>
<path d="M9258 3213 c21 -29 105 -93 124 -93 4 0 8 6 8 14 0 15 -99 92 -114&#xA;88 -4 -2 -15 3 -24 10 -10 8 -7 0 6 -19z"></path>
<path d="M5451 3214 c0 -11 3 -14 6 -6 3 7 2 16 -1 19 -3 4 -6 -2 -5 -13z"></path>
<path d="M10773 3223 c9 -2 15 -9 12 -14 -9 -14 1 -11 13 4 8 10 5 13 -16 14&#xA;-15 0 -19 -1 -9 -4z"></path>
<path d="M10871 3213 c0 -12 4 -25 9 -28 6 -4 8 -11 5 -16 -10 -14 9 -11 31 7&#xA;10 8 13 13 7 9 -7 -3 -13 -1 -13 4 0 6 -6 11 -14 11 -8 0 -17 8 -19 18 -4 13&#xA;-5 12 -6 -5z"></path>
<path d="M11963 3206 c12 -14 26 -21 31 -16 5 5 16 6 25 4 9 -3 5 1 -9 9 -14&#xA;8 -35 18 -47 21 l-23 7 23 -25z"></path>
<path d="M6553 3165 c0 -27 2 -38 4 -22 2 15 2 37 0 50 -2 12 -4 0 -4 -28z"></path>
<path d="M9933 3186 c15 -14 33 -26 38 -26 6 0 32 -17 57 -37 l47 -37 -35 38&#xA;c-19 21 -57 49 -85 63 l-50 25 28 -26z"></path>
<path d="M1006 3185 c4 -8 8 -15 10 -15 2 0 4 7 4 15 0 8 -4 15 -10 15 -5 0&#xA;-7 -7 -4 -15z"></path>
<path d="M5149 3183 c-13 -16 -12 -17 4 -4 9 7 17 15 17 17 0 8 -8 3 -21 -13z"></path>
<path d="M10794 3185 c-17 -13 -17 -14 -2 -15 9 0 20 5 23 11 11 17 0 20 -21&#xA;4z"></path>
<path d="M10840 3180 c11 -21 22 -25 33 -13 9 9 -12 33 -30 33 -11 0 -11 -4&#xA;-3 -20z"></path>
<path d="M5431 3181 c-8 -5 -10 -14 -6 -21 6 -9 10 -8 17 4 12 21 7 28 -11 17z"></path>
<path d="M6580 3160 c-9 -6 -10 -10 -3 -10 6 0 15 5 18 10 8 12 4 12 -15 0z"></path>
<path d="M11050 3151 c0 -11 -5 -21 -11 -23 -9 -3 -9 -9 0 -25 10 -20 8 -22&#xA;-26 -26 l-38 -4 43 -1 42 -2 0 50 c0 28 -2 50 -5 50 -3 0 -5 -9 -5 -19z"></path>
<path d="M11432 3143 c8 -10 108 -53 124 -53 2 0 -3 11 -11 24 -18 27 -44 38&#xA;-92 40 -23 1 -29 -2 -21 -11z"></path>
<path d="M5858 3112 c-2 -18 -1 -35 2 -37 9 -5 34 -95 32 -110 -1 -6 7 -11 17&#xA;-11 18 0 18 2 -3 41 -11 22 -26 65 -32 95 -10 51 -11 53 -16 22z"></path>
<path d="M4818 3123 c34 -2 90 -2 125 0 34 2 6 3 -63 3 -69 0 -97 -1 -62 -3z"></path>
<path d="M6802 3100 c0 -19 2 -27 5 -17 2 9 2 25 0 35 -3 9 -5 1 -5 -18z"></path>
<path d="M7795 3120 c-3 -5 -1 -10 4 -10 6 0 11 5 11 10 0 6 -2 10 -4 10 -3 0&#xA;-8 -4 -11 -10z"></path>
<path d="M2720 3105 c0 -7 -8 -19 -17 -24 -16 -9 -16 -10 5 -11 17 0 22 6 22&#xA;25 0 14 -2 25 -5 25 -3 0 -5 -7 -5 -15z"></path>
<path d="M12153 3088 c11 -18 15 -37 11 -53 -4 -18 -2 -27 10 -31 9 -3 16 -14&#xA;17 -23 0 -10 2 -11 6 -4 7 19 -25 109 -45 125 -15 12 -15 10 1 -14z"></path>
<path d="M5380 3076 c-6 -8 -27 -20 -46 -26 -19 -7 -33 -17 -31 -23 2 -7 -8&#xA;-20 -22 -29 -14 -10 -21 -18 -15 -18 6 0 29 13 50 29 39 29 92 81 82 81 -3 0&#xA;-11 -7 -18 -14z"></path>
<path d="M8468 3083 c7 -3 16 -2 19 1 4 3 -2 6 -13 5 -11 0 -14 -3 -6 -6z"></path>
<path d="M8515 3080 c-14 -5 6 -13 74 -29 52 -12 96 -19 98 -17 3 2 -10 7 -27&#xA;11 -19 4 -30 12 -27 19 3 8 -10 13 -41 15 -25 1 -48 4 -51 5 -3 2 -15 0 -26&#xA;-4z"></path>
<path d="M2318 3073 c12 -2 32 -2 45 0 12 2 2 4 -23 4 -25 0 -35 -2 -22 -4z"></path>
<path d="M2603 3073 c15 -2 39 -2 55 0 15 2 2 4 -28 4 -30 0 -43 -2 -27 -4z"></path>
<path d="M3310 3070 c34 -11 60 -11 35 0 -11 5 -29 8 -40 8 -16 0 -15 -2 5 -8z"></path>
<path d="M10534 3067 c-2 -7 -3 -67 -1 -133 l3 -119 2 127 c1 90 6 128 15 131&#xA;9 4 9 6 -1 6 -7 1 -15 -5 -18 -12z"></path>
<path d="M10628 3073 c18 -2 45 -2 60 0 15 2 0 4 -33 4 -33 0 -45 -2 -27 -4z"></path>
<path d="M10758 3073 c6 -2 18 -2 25 0 6 3 1 5 -13 5 -14 0 -19 -2 -12 -5z"></path>
<path d="M10918 3073 c12 -2 30 -2 40 0 9 3 -1 5 -23 4 -22 0 -30 -2 -17 -4z"></path>
<path d="M11707 3073 c-15 -14 -4 -21 56 -37 35 -8 73 -18 83 -21 10 -3 7 1&#xA;-9 8 -15 7 -25 16 -21 19 3 4 -3 4 -15 1 -12 -3 -21 -1 -21 4 0 5 -11 15 -25&#xA;21 -30 14 -39 15 -48 5z"></path>
<path d="M3844 3053 c3 -15 -1 -23 -10 -23 -19 0 -2 -44 20 -48 20 -4 20 22 0&#xA;63 -11 22 -13 24 -10 8z"></path>
<path d="M9052 3050 c7 -10 14 -18 15 -16 6 6 -9 36 -18 36 -5 0 -4 -9 3 -20z"></path>
<path d="M11668 3063 c7 -3 16 -2 19 1 4 3 -2 6 -13 5 -11 0 -14 -3 -6 -6z"></path>
<path d="M2203 2980 c0 -47 2 -66 4 -42 2 23 2 61 0 85 -2 23 -4 4 -4 -43z"></path>
<path d="M3395 3051 c31 -13 93 -24 75 -12 -8 5 -33 12 -55 15 -27 4 -34 4&#xA;-20 -3z"></path>
<path d="M9605 3055 c6 -1 49 -15 96 -29 47 -14 99 -35 115 -47 16 -12 9 -2&#xA;-16 20 -25 23 -54 44 -65 46 -28 5 -142 15 -130 10z"></path>
<path d="M6997 3034 c-11 -11 -7 -74 8 -119 l14 -40 -3 52 c-1 29 1 54 5 55 4&#xA;2 2 16 -4 31 -7 16 -15 25 -20 21z"></path>
<path d="M6508 2986 c-9 -18 -32 -51 -50 -72 -30 -34 -26 -39 11 -10 18 14 61&#xA;19 61 6 0 -5 7 -10 15 -10 8 0 15 3 15 8 0 16 -16 29 -32 27 -17 -3 -15 17 4&#xA;42 6 7 6 18 1 28 -7 13 -12 9 -25 -19z"></path>
<path d="M7241 3004 c0 -11 3 -14 6 -6 3 7 2 16 -1 19 -3 4 -6 -2 -5 -13z"></path>
<path d="M8731 3017 c2 -2 18 -11 34 -21 l30 -17 -24 20 c-13 12 -28 21 -34&#xA;21 -6 0 -8 -1 -6 -3z"></path>
<path d="M9072 3000 c0 -14 2 -19 5 -12 2 6 2 18 0 25 -3 6 -5 1 -5 -13z"></path>
<path d="M11871 3007 c2 -1 13 -9 24 -17 19 -14 19 -14 6 3 -7 9 -18 17 -24&#xA;17 -6 0 -8 -1 -6 -3z"></path>
<path d="M8811 2956 c7 -15 15 -23 17 -16 3 7 -3 19 -13 28 -15 16 -16 15 -4&#xA;-12z"></path>
<path d="M5255 2946 c10 -14 19 -26 22 -26 7 0 -17 39 -28 46 -6 3 -3 -5 6&#xA;-20z"></path>
<path d="M7971 2954 c0 -11 3 -14 6 -6 3 7 2 16 -1 19 -3 4 -6 -2 -5 -13z"></path>
<path d="M10347 2963 c10 -3 9 -8 -2 -20 -11 -11 -13 -19 -5 -27 5 -7 7 -15 4&#xA;-18 -2 -3 1 -8 9 -11 11 -4 13 2 11 25 -3 23 0 29 11 24 19 -7 31 12 16 27 -8&#xA;8 -11 7 -11 -3 0 -11 -3 -11 -12 -2 -7 7 -17 12 -22 11 -6 0 -5 -3 1 -6z"></path>
<path d="M11928 2959 c6 -7 12 -28 12 -47 0 -19 4 -31 10 -27 20 12 11 64 -12&#xA;76 -19 9 -21 9 -10 -2z"></path>
<path d="M3608 2921 c2 -21 -1 -49 -8 -61 -11 -20 -10 -21 10 -10 19 10 22 18&#xA;17 52 -7 53 -24 69 -19 19z"></path>
<path d="M5646 2937 c8 -26 62 -125 72 -131 4 -3 8 10 7 27 0 24 -4 32 -17 31&#xA;-17 -2 -23 8 -19 30 5 24 -11 54 -29 59 -18 4 -20 2 -14 -16z"></path>
<path d="M10103 2905 c0 -27 2 -38 4 -22 2 15 2 37 0 50 -2 12 -4 0 -4 -28z"></path>
<path d="M4952 2923 c41 -4 49 -8 72 -44 29 -43 33 -46 33 -24 0 8 -4 12 -9 9&#xA;-4 -3 -6 5 -5 18 5 29 -37 49 -97 46 l-41 -2 47 -3z"></path>
<path d="M7961 2914 c0 -11 3 -14 6 -6 3 7 2 16 -1 19 -3 4 -6 -2 -5 -13z"></path>
<path d="M8826 2905 c-3 -9 -6 -22 -5 -28 0 -7 5 -1 10 12 5 13 8 26 5 28 -2&#xA;2 -6 -3 -10 -12z"></path>
<path d="M4754 2775 c0 -77 2 -107 3 -67 2 40 2 103 0 140 -2 37 -3 4 -3 -73z"></path>
<path d="M8201 2809 c-49 -111 -50 -103 24 -140 l40 -20 -25 20 c-15 13 -20&#xA;21 -11 21 10 0 9 5 -5 18 -11 9 -21 32 -23 50 -2 26 2 35 17 39 23 5 35 36 20&#xA;51 -6 6 -4 14 4 23 15 17 21 39 11 39 -5 0 -28 -46 -52 -101z"></path>
<path d="M3067 2887 c7 -11 123 -69 133 -65 4 2 -25 19 -65 38 -40 19 -71 32&#xA;-68 27z"></path>
<path d="M9260 2890 c0 -5 5 -10 11 -10 5 0 7 5 4 10 -3 6 -8 10 -11 10 -2 0&#xA;-4 -4 -4 -10z"></path>
<path d="M2203 2855 c0 -22 2 -30 4 -17 2 12 2 30 0 40 -3 9 -5 -1 -4 -23z"></path>
<path d="M2986 2807 c-20 -45 -36 -86 -36 -92 0 -5 14 -18 32 -28 28 -16 30&#xA;-16 17 -1 -13 16 -12 17 12 11 l26 -7 2 77 c1 42 4 80 7 85 3 4 -1 15 -9 22&#xA;-12 13 -19 4 -51 -67z"></path>
<path d="M7645 2855 c-16 -14 -25 -25 -19 -25 6 0 21 11 34 25 30 32 24 31&#xA;-15 0z"></path>
<path d="M8315 2860 c10 -11 24 -20 32 -20 7 0 18 -10 23 -22 8 -21 9 -21 10&#xA;-3 0 13 3 16 8 8 4 -7 12 -9 18 -5 6 4 -16 19 -49 35 -53 24 -58 25 -42 7z"></path>
<path d="M12191 2864 c0 -11 3 -14 6 -6 3 7 2 16 -1 19 -3 4 -6 -2 -5 -13z"></path>
<path d="M6720 2860 c-8 -5 -10 -10 -5 -10 6 0 3 -6 -6 -13 -9 -7 -22 -23 -29&#xA;-37 -12 -24 -12 -24 6 -8 17 15 59 78 52 78 -2 0 -10 -5 -18 -10z"></path>
<path d="M7020 2865 c0 -5 5 -17 10 -25 5 -8 10 -10 10 -5 0 6 -5 17 -10 25&#xA;-5 8 -10 11 -10 5z"></path>
<path d="M9265 2848 c-6 -13 -16 -22 -23 -20 -7 1 -12 0 -12 -2 0 -2 -11 -29&#xA;-25 -60 l-25 -56 47 -30 c48 -31 69 -38 58 -19 -4 5 -7 55 -7 110 0 54 -1 99&#xA;-2 99 -1 0 -6 -10 -11 -22z"></path>
<path d="M9345 2860 c2 -4 18 -13 35 -20 16 -7 28 -15 26 -19 -3 -4 5 -8 17&#xA;-8 12 -1 38 -4 57 -7 19 -3 28 -3 20 1 -102 40 -159 59 -155 53z"></path>
<path d="M11308 2790 l-36 -79 24 -16 c14 -9 30 -13 36 -9 6 4 8 3 5 -3 -4 -6&#xA;-1 -13 6 -16 10 -4 13 14 14 69 1 58 -2 74 -13 74 -12 0 -12 4 -4 21 6 11 10&#xA;24 8 29 -2 5 -19 -27 -40 -70z"></path>
<path d="M10086 2832 c-4 -12 -11 -20 -16 -17 -14 8 -23 -16 -11 -28 8 -8 3&#xA;-20 -16 -46 -21 -29 -22 -32 -5 -17 26 23 65 101 59 118 -2 8 -7 3 -11 -10z"></path>
<path d="M11490 2835 c14 -8 30 -14 35 -14 6 0 -1 6 -15 14 -14 8 -29 14 -35&#xA;14 -5 0 1 -6 15 -14z"></path>
<path d="M6069 2823 c18 -12 50 -17 125 -19 l101 -2 -95 7 c-52 4 -105 13&#xA;-117 19 -32 18 -41 15 -14 -5z"></path>
<path d="M12177 2823 c-4 -3 -7 -13 -7 -22 1 -13 3 -13 11 2 11 19 8 33 -4 20z"></path>
<path d="M1343 2813 c54 -2 139 -2 190 0 51 1 7 3 -98 3 -104 0 -146 -2 -92&#xA;-3z"></path>
<path d="M1770 2810 c14 -4 19 -8 13 -9 -8 -1 -13 -14 -13 -31 0 -17 5 -30 13&#xA;-30 9 0 9 -2 -1 -9 -10 -6 -10 -10 3 -21 13 -11 15 -5 15 49 0 60 0 61 -27 60&#xA;l-28 -1 25 -8z"></path>
<path d="M7410 2810 c28 -13 126 -17 137 -7 3 4 -20 7 -53 7 -32 0 -70 3 -84&#xA;5 l-25 6 25 -11z"></path>
<path d="M2323 2803 c48 -2 125 -2 170 0 45 1 6 3 -88 3 -93 0 -130 -2 -82 -3z"></path>
<path d="M10597 2803 c18 -2 50 -2 70 0 21 2 7 4 -32 4 -38 0 -55 -2 -38 -4z"></path>
<path d="M11820 2800 c-20 -6 -21 -8 -5 -8 11 0 29 3 40 8 25 11 -1 11 -35 0z"></path>
<path d="M3318 2793 c7 -3 16 -2 19 1 4 3 -2 6 -13 5 -11 0 -14 -3 -6 -6z"></path>
<path d="M3478 2793 c7 -3 16 -2 19 1 4 3 -2 6 -13 5 -11 0 -14 -3 -6 -6z"></path>
<path d="M3840 2792 c0 -6 -13 -19 -30 -29 -18 -10 -30 -26 -30 -38 0 -12 -6&#xA;-27 -12 -35 -7 -8 0 -4 15 10 33 29 72 88 63 97 -3 4 -6 1 -6 -5z"></path>
<path d="M8508 2793 c6 -2 18 -2 25 0 6 3 1 5 -13 5 -14 0 -19 -2 -12 -5z"></path>
<path d="M11638 2793 c6 -2 18 -2 25 0 6 3 1 5 -13 5 -14 0 -19 -2 -12 -5z"></path>
<path d="M5370 2771 c5 -11 15 -23 21 -27 6 -3 3 5 -6 20 -20 30 -30 35 -15 7z"></path>
<path d="M8598 2783 c12 -2 30 -2 40 0 9 3 -1 5 -23 4 -22 0 -30 -2 -17 -4z"></path>
<path d="M9340 2777 c-33 -26 -14 -52 31 -42 23 5 28 10 18 16 -10 6 -11 9 -1&#xA;9 6 0 12 5 12 11 0 6 -6 9 -14 6 -7 -3 -17 -2 -22 3 -5 5 -16 3 -24 -3z"></path>
<path d="M11703 2783 c15 -2 39 -2 55 0 15 2 2 4 -28 4 -30 0 -43 -2 -27 -4z"></path>
<path d="M5755 2760 c10 -11 20 -20 23 -20 3 0 -3 9 -13 20 -10 11 -20 20 -23&#xA;20 -3 0 3 -9 13 -20z"></path>
<path d="M7077 2755 c12 -16 34 -41 49 -55 19 -17 15 -10 -10 20 -53 61 -63&#xA;71 -39 35z"></path>
<path d="M6639 2743 l-24 -28 28 24 c15 14 27 26 27 28 0 8 -8 1 -31 -24z"></path>
<path d="M2810 2753 c-1 -5 -3 -34 -7 -65 -4 -40 -2 -58 6 -58 7 0 11 24 11&#xA;65 0 36 -2 65 -5 65 -3 0 -5 -3 -5 -7z"></path>
<path d="M5930 2750 c0 -5 6 -10 14 -10 8 0 18 5 21 10 3 6 -3 10 -14 10 -12&#xA;0 -21 -4 -21 -10z"></path>
<path d="M5404 2722 c4 -7 2 -12 -4 -12 -17 0 -3 -17 20 -23 17 -4 18 -2 10&#xA;13 -6 11 -15 22 -22 26 -7 4 -8 3 -4 -4z"></path>
<path d="M6035 2720 c-4 -6 -10 -8 -15 -5 -8 5 -24 -25 -16 -32 2 -2 16 7 31&#xA;21 16 15 23 26 17 26 -6 0 -14 -5 -17 -10z"></path>
<path d="M8984 2698 l-29 -33 33 29 c17 17 32 31 32 33 0 8 -8 1 -36 -29z"></path>
<path d="M996 2708 c3 -5 10 -6 15 -3 13 9 11 12 -6 12 -8 0 -12 -4 -9 -9z"></path>
<path d="M6584 2698 l-19 -23 23 19 c12 11 22 21 22 23 0 8 -8 2 -26 -19z"></path>
<path d="M10342 2696 c-1 -19 2 -23 18 -19 22 6 27 23 8 23 -9 0 -8 4 2 10 12&#xA;8 11 10 -5 10 -15 0 -21 -7 -23 -24z"></path>
<path d="M5157 2680 c20 -34 68 -93 57 -70 -4 8 -14 23 -23 33 -13 16 -13 19&#xA;-1 28 12 7 11 10 -7 15 -13 4 -23 10 -23 15 0 5 -5 9 -11 9 -5 0 -2 -14 8 -30z"></path>
<path d="M5829 2696 c17 -21 71 -48 66 -33 -3 7 -21 20 -41 29 -19 9 -30 11&#xA;-25 4z"></path>
<path d="M11140 2670 c0 -22 -25 -54 -50 -63 -8 -3 2 -6 23 -6 l37 -1 0 45 c0&#xA;25 -2 45 -5 45 -3 0 -5 -9 -5 -20z"></path>
<path d="M1953 2640 c0 -25 2 -35 4 -22 2 12 2 32 0 45 -2 12 -4 2 -4 -23z"></path>
<path d="M4520 2671 c0 -6 4 -13 10 -16 6 -3 7 1 4 9 -7 18 -14 21 -14 7z"></path>
<path d="M6534 2664 c-18 -14 -18 -15 4 -4 12 6 22 13 22 15 0 8 -5 6 -26 -11z"></path>
<path d="M7166 2669 c7 -12 123 -69 140 -69 6 0 16 6 22 13 9 10 3 13 -28 12&#xA;-22 -1 -38 4 -37 9 1 6 -6 10 -16 8 -10 -2 -34 6 -53 17 -19 12 -32 16 -28 10z"></path>
<path d="M7694 2639 c-3 -5 1 -9 8 -9 10 0 9 -3 -2 -11 -11 -8 -9 -9 10 -3 14&#xA;3 32 10 40 15 13 7 13 9 0 9 -8 1 -23 3 -32 5 -10 2 -20 -1 -24 -6z"></path>
<path d="M987 2627 c-10 -27 -10 -27 26 -26 22 1 25 3 10 6 -12 2 -23 12 -25&#xA;21 -3 15 -4 15 -11 -1z"></path>
<path d="M6426 2628 c3 -4 -10 -5 -28 -4 -18 2 -22 1 -9 -1 20 -4 22 -7 10&#xA;-14 -17 -12 19 -3 66 16 l30 12 -37 -1 c-20 -1 -34 -4 -32 -8z"></path>
<path d="M8310 2630 c8 -5 20 -10 25 -10 6 0 3 5 -5 10 -8 5 -19 10 -25 10 -5&#xA;0 -3 -5 5 -10z"></path>
<path d="M8853 2625 c-17 -8 -43 -16 -58 -19 -15 -3 -30 -8 -34 -12 -11 -12&#xA;58 5 102 25 48 22 39 27 -10 6z"></path>
<path d="M9875 2628 c-22 -6 -53 -16 -70 -24 l-30 -14 38 5 c20 3 56 14 80 25&#xA;46 21 42 22 -18 8z"></path>
<path d="M4751 2614 c0 -11 3 -14 6 -6 3 7 2 16 -1 19 -3 4 -6 -2 -5 -13z"></path>
<path d="M11478 2614 c32 -12 50 -14 65 -6 21 10 21 10 2 11 -11 1 -40 3 -65&#xA;6 l-45 5 43 -16z"></path>
<path d="M2597 2608 c-7 -4 10 -8 36 -8 28 0 46 4 42 10 -6 10 -60 9 -78 -2z"></path>
<path d="M5235 2610 c-3 -5 3 -10 14 -10 11 0 23 5 26 10 3 6 -3 10 -14 10&#xA;-11 0 -23 -4 -26 -10z"></path>
<path d="M5290 2610 c0 -5 5 -10 11 -10 5 0 7 5 4 10 -3 6 -8 10 -11 10 -2 0&#xA;-4 -4 -4 -10z"></path>
<path d="M1978 2603 c6 -2 18 -2 25 0 6 3 1 5 -13 5 -14 0 -19 -2 -12 -5z"></path>
<path d="M3530 2594 l-65 -13 59 5 c33 3 69 10 80 14 29 12 2 10 -74 -6z"></path>
<path d="M8398 2603 c7 -3 16 -2 19 1 4 3 -2 6 -13 5 -11 0 -14 -3 -6 -6z"></path>
<path d="M3250 2590 c25 -8 117 -13 109 -6 -2 2 -33 6 -69 9 -40 3 -56 2 -40&#xA;-3z"></path>
<path d="M6048 2593 c7 -3 16 -2 19 1 4 3 -2 6 -13 5 -11 0 -14 -3 -6 -6z"></path>
<path d="M6348 2593 c7 -3 16 -2 19 1 4 3 -2 6 -13 5 -11 0 -14 -3 -6 -6z"></path>
<path d="M8443 2593 c9 -2 23 -2 30 0 6 3 -1 5 -18 5 -16 0 -22 -2 -12 -5z"></path>
<path d="M8490 2588 c0 -4 21 -8 47 -8 25 0 44 3 40 6 -9 9 -87 11 -87 2z"></path>
<path d="M9468 2593 c7 -3 16 -2 19 1 4 3 -2 6 -13 5 -11 0 -14 -3 -6 -6z"></path>
<path d="M11558 2593 c7 -3 16 -2 19 1 4 3 -2 6 -13 5 -11 0 -14 -3 -6 -6z"></path>
<path d="M11790 2590 l-75 -6 70 -1 c39 0 84 3 100 7 26 7 27 8 5 7 -14 0 -59&#xA;-3 -100 -7z"></path>
<path d="M6113 2583 c9 -2 23 -2 30 0 6 3 -1 5 -18 5 -16 0 -22 -2 -12 -5z"></path>
<path d="M6283 2583 c9 -2 23 -2 30 0 6 3 -1 5 -18 5 -16 0 -22 -2 -12 -5z"></path>
<path d="M7398 2583 c7 -3 16 -2 19 1 4 3 -2 6 -13 5 -11 0 -14 -3 -6 -6z"></path>
<path d="M8708 2583 c6 -2 18 -2 25 0 6 3 1 5 -13 5 -14 0 -19 -2 -12 -5z"></path>
<path d="M9538 2583 c18 -2 45 -2 60 0 15 2 0 4 -33 4 -33 0 -45 -2 -27 -4z"></path>
<path d="M9738 2583 c6 -2 18 -2 25 0 6 3 1 5 -13 5 -14 0 -19 -2 -12 -5z"></path>
<path d="M4153 2103 c15 -2 37 -2 50 0 12 2 0 4 -28 4 -27 0 -38 -2 -22 -4z"></path>
<path d="M4530 2102 c0 -5 13 -7 30 -6 21 1 31 -3 35 -17 4 -10 11 -19 16 -19&#xA;5 0 9 -7 9 -16 0 -8 -4 -12 -10 -9 -5 3 -10 -3 -10 -14 0 -11 4 -22 8 -25 5&#xA;-3 10 -26 11 -52 3 -93 11 -55 11 54 l0 112 -50 0 c-27 0 -50 -4 -50 -8z"></path>
<path d="M4956 2074 c-9 -20 -15 -39 -12 -41 2 -2 7 5 11 17 5 15 12 19 26 15&#xA;11 -4 19 -2 19 4 0 6 7 11 16 11 13 0 14 -3 5 -13 -8 -11 -6 -13 9 -13 13 1&#xA;29 -12 41 -31 12 -18 16 -33 10 -33 -6 0 -11 5 -11 10 0 6 -5 10 -11 10 -8 0&#xA;-8 -5 1 -15 11 -14 7 -19 -12 -16 -11 1 -10 -11 2 -29 9 -14 11 -13 14 9 2 17&#xA;16 25 17 10 0 -8 4 -6 9 6 5 13 3 28 -6 43 -8 12 -10 22 -5 22 6 0 15 -9 21&#xA;-21 7 -11 14 -19 16 -16 3 3 -6 28 -20 56 -26 51 -27 51 -74 51 -46 0 -49 -2&#xA;-66 -36z m129 -14 c3 -5 1 -10 -4 -10 -6 0 -11 5 -11 10 0 6 2 10 4 10 3 0 8&#xA;-4 11 -10z"></path>
<path d="M5400 1903 c0 -187 2 -212 21 -253 42 -93 122 -142 228 -139 l46 2&#xA;-52 6 c-48 6 -85 21 -52 21 29 0 -15 20 -46 20 -16 0 -37 4 -45 10 -12 8 -12&#xA;10 3 16 15 6 14 8 -9 20 -14 8 -33 14 -40 14 -14 0 -18 10 -15 45 1 15 0 17&#xA;-7 7 -12 -17 -22 18 -20 68 1 30 2 31 5 8 2 -16 9 -28 14 -28 5 0 9 79 9 189&#xA;l0 190 33 4 c22 3 15 4 -20 5 l-53 2 0 -207z m17 145 c-3 -8 -6 -5 -6 6 -1 11&#xA;2 17 5 13 3 -3 4 -12 1 -19z"></path>
<path d="M5800 1916 c0 -107 -2 -200 -3 -208 -2 -7 -2 -10 0 -5 3 4 8 5 13 2&#xA;13 -8 36 76 35 127 -1 32 2 44 9 38 8 -6 10 21 9 88 -2 138 -2 130 -13 112 -8&#xA;-13 -10 -13 -10 2 0 9 -8 19 -17 22 -10 3 3 4 30 3 26 -1 47 1 47 5 0 5 -22 8&#xA;-50 8 l-50 0 0 -194z m20 37 c-8 -48 -8 -48 -8 22 -1 49 2 64 8 48 5 -11 5&#xA;-43 0 -70z"></path>
<path d="M5982 2063 l1 -48 4 43 4 42 57 -1 c52 -1 54 -2 27 -11 -16 -5 -36&#xA;-10 -42 -10 -7 -1 -13 -5 -13 -10 0 -5 -4 -6 -10 -3 -5 3 -10 1 -10 -6 0 -7&#xA;11 -9 34 -5 40 8 69 -2 62 -20 -4 -10 5 -14 34 -14 l40 0 0 -250 0 -250 50 0&#xA;50 0 0 250 0 250 58 0 c33 0 52 4 44 9 -10 6 -10 10 3 21 22 19 18 28 -12 29&#xA;-54 1 -63 2 -68 12 -4 5 27 9 74 9 l80 0 4 -42 4 -43 1 48 2 47 -240 0 -240 0&#xA;2 -47z m113 7 c3 -5 1 -10 -4 -10 -6 0 -11 5 -11 10 0 6 2 10 4 10 3 0 8 -4&#xA;11 -10z m185 -28 c-8 -3 -18 -9 -21 -15 -4 -5 -12 -6 -18 -3 -17 11 10 34 33&#xA;28 15 -4 17 -7 6 -10z m-75 -1 c-3 -6 3 -14 12 -20 17 -9 17 -10 0 -17 -10 -4&#xA;-23 -2 -30 5 -8 8 -8 11 1 11 7 0 11 3 11 8 -2 12 1 22 7 22 3 0 3 -4 -1 -9z&#xA;m55 -311 l0 -200 -27 2 c-43 3 -53 16 -52 67 1 28 4 36 6 21 3 -14 10 -28 17&#xA;-32 7 -5 6 -8 -4 -8 -13 0 -13 -1 0 -10 20 -13 40 7 40 39 -5 217 1 321 16&#xA;321 2 0 4 -90 4 -200z m-73 47 c-2 -23 -3 -1 -3 48 0 50 1 68 3 42 2 -26 2&#xA;-67 0 -90z"></path>
<path d="M6830 2065 l0 -45 105 0 105 0 0 -179 c0 -178 0 -180 -26 -210 -26&#xA;-31 -26 -31 -3 -23 35 13 41 54 37 259 -2 149 -6 185 -18 193 -12 7 -10 11 10&#xA;19 23 9 22 10 -12 10 -21 1 -38 -4 -38 -9 0 -6 -11 -8 -25 -4 -21 5 -25 3 -25&#xA;-15 0 -33 -48 -29 -60 5 -7 17 -15 24 -25 20 -8 -3 -15 -1 -15 4 0 6 49 10&#xA;120 10 99 0 120 -3 120 -15 0 -8 11 -17 25 -21 l25 -6 3 -187 2 -186 3 213 2&#xA;212 -155 0 -155 0 0 -45z m146 -32 c-10 -10 -19 5 -10 18 6 11 8 11 12 0 2 -7&#xA;1 -15 -2 -18z m44 7 c0 -5 -5 -10 -11 -10 -5 0 -7 5 -4 10 3 6 8 10 11 10 2 0&#xA;4 -4 4 -10z"></path>
<path d="M7290 1913 c0 -132 4 -193 10 -183 5 8 10 10 10 4 0 -6 9 -21 20 -34&#xA;14 -17 17 -26 9 -31 -6 -4 -8 -12 -5 -18 10 -16 26 -14 20 3 -3 8 -1 17 4 20&#xA;5 3 8 18 6 33 -7 54 -4 341 3 359 5 11 10 -64 13 -166 l6 -185 2 198 2 197&#xA;-50 0 -50 0 0 -197z m40 177 c13 -8 12 -10 -3 -10 -15 0 -16 -3 -6 -21 6 -12&#xA;7 -19 2 -16 -6 4 -11 -16 -12 -45 -3 -84 -11 -68 -11 20 0 83 3 90 30 72z"></path>
<path d="M7692 1953 l2 -158 3 152 4 152 32 4 c31 4 31 4 -5 5 l-38 2 2 -157z"></path>
<path d="M7940 1815 l0 -295 53 0 52 1 -38 18 c-20 9 -34 21 -30 26 5 4 0 5&#xA;-9 2 -17 -6 -18 4 -17 131 0 102 3 131 10 112 11 -25 16 -55 18 -99 2 -49 14&#xA;-10 12 43 0 30 4 58 9 61 6 3 10 12 10 19 0 17 -47 39 -54 25 -2 -5 -3 -4 -1&#xA;3 1 7 8 12 14 11 6 -2 11 2 11 7 0 6 -5 10 -10 10 -6 0 -10 6 -9 13 1 6 -1 19&#xA;-5 29 -4 9 -6 31 -3 50 3 28 4 27 6 -12 1 -28 4 -40 10 -32 6 10 11 9 22 -4&#xA;12 -16 12 -17 -2 -12 -10 4 -16 1 -16 -8 0 -8 3 -12 5 -9 3 3 11 0 17 -5 9 -8&#xA;12 -4 10 12 -1 13 -3 25 -5 28 -1 3 -1 16 -1 31 2 18 -5 29 -23 39 -15 7 -26&#xA;21 -26 31 0 23 28 32 33 11 3 -10 5 -5 6 11 1 25 -1 27 -19 17 -16 -9 -20 -8&#xA;-20 5 0 12 13 15 73 14 39 -1 64 -3 55 -6 -28 -7 -21 -21 14 -28 21 -5 33 -4&#xA;36 4 2 6 10 11 18 11 9 0 13 -4 10 -8 -3 -5 1 -9 8 -9 7 0 13 6 13 14 0 7 -5&#xA;13 -10 13 -6 0 -7 3 -4 6 4 4 13 2 21 -5 11 -9 15 -8 20 4 5 13 -13 15 -129&#xA;15 l-135 0 0 -295z"></path>
<path d="M8711 2088 c-5 -13 -19 -45 -30 -72 -12 -27 -19 -51 -16 -54 3 -3 5&#xA;-1 5 5 0 16 34 50 46 46 7 -2 15 8 18 22 4 14 11 23 16 20 6 -3 10 -1 10 4 0&#xA;19 20 12 21 -6 0 -11 3 -13 6 -5 2 6 9 12 14 12 6 0 8 -3 6 -7 -3 -5 2 -15 11&#xA;-23 17 -15 17 -17 -4 35 -3 8 -1 15 5 15 6 0 11 -5 11 -12 0 -6 3 -9 6 -6 3 4&#xA;1 16 -6 27 -9 17 -20 21 -61 21 -42 0 -51 -3 -58 -22z"></path>
<path d="M8238 2093 c12 -2 20 -8 17 -13 -6 -10 63 -26 72 -16 9 8 -62 36 -89&#xA;35 l-23 -2 23 -4z"></path>
<path d="M4132 2005 c-1 -62 1 -85 8 -75 8 13 10 13 10 1 0 -11 4 -9 15 5 8&#xA;10 15 14 15 7 0 -7 6 -10 14 -7 10 4 16 -3 19 -23 2 -15 5 2 6 39 l1 68 -25&#xA;-10 c-23 -9 -26 -7 -31 20 -4 16 -10 27 -15 25 -4 -3 -9 5 -11 17 -2 13 -5&#xA;-17 -6 -67z"></path>
<path d="M6886 2076 c7 -19 38 -22 32 -3 -3 6 -12 13 -21 15 -12 2 -15 -1 -11&#xA;-12z"></path>
<path d="M5892 2055 c0 -16 2 -22 5 -12 2 9 2 23 0 30 -3 6 -5 -1 -5 -18z"></path>
<path d="M4533 1980 c0 -41 2 -60 4 -42 2 17 8 32 14 32 5 0 9 12 9 28 0 20&#xA;-3 23 -9 13 -7 -11 -10 -7 -14 15 -2 16 -4 -5 -4 -46z"></path>
<path d="M8096 2038 c-9 -5 -24 -7 -32 -4 -8 3 -14 1 -14 -4 0 -6 39 -10 93&#xA;-10 82 1 90 2 73 15 -21 16 -94 18 -120 3z"></path>
<path d="M4969 2038 c-5 -18 -6 -38 -1 -34 7 8 12 36 6 36 -2 0 -4 -1 -5 -2z"></path>
<path d="M8847 2024 c-4 -4 -7 -14 -7 -23 0 -14 2 -14 10 -1 8 12 10 12 10 1&#xA;0 -8 3 -12 6 -8 3 3 2 13 -3 22 -5 8 -12 12 -16 9z"></path>
<path d="M5892 2000 c0 -14 2 -19 5 -12 2 6 2 18 0 25 -3 6 -5 1 -5 -13z"></path>
<path d="M7784 1875 c0 -82 2 -115 3 -72 2 43 2 110 0 150 -1 40 -3 5 -3 -78z"></path>
<path d="M8028 1968 c-1 -29 0 -84 3 -123 5 -59 6 -52 7 53 2 125 -3 164 -10&#xA;70z"></path>
<path d="M4887 1917 c-53 -122 -52 -118 -34 -111 19 7 32 -13 18 -30 -17 -20&#xA;0 -28 20 -10 16 15 17 14 13 -8 -3 -12 11 9 30 49 35 73 56 130 38 105 -8 -11&#xA;-10 -11 -14 0 -3 8 0 22 8 32 11 16 11 21 -1 33 -8 8 -19 12 -24 9 -5 -4 -11&#xA;-1 -13 6 -2 6 -21 -27 -41 -75z"></path>
<path d="M7060 1959 c0 -11 4 -18 10 -14 5 3 7 12 3 20 -7 21 -13 19 -13 -6z"></path>
<path d="M5130 1965 c0 -5 5 -17 10 -25 5 -8 10 -10 10 -5 0 6 -5 17 -10 25&#xA;-5 8 -10 11 -10 5z"></path>
<path d="M5888 1941 c-5 -18 -8 -67 -8 -108 0 -46 -6 -86 -15 -106 -14 -29&#xA;-14 -30 0 -13 14 19 15 19 16 -10 1 -26 2 -25 10 11 5 22 8 89 7 150 -2 78 -5&#xA;100 -10 76z"></path>
<path d="M8400 1930 c0 -11 -4 -20 -9 -20 -14 0 -9 -34 6 -49 11 -10 13 -2 13&#xA;39 0 27 -2 50 -5 50 -3 0 -5 -9 -5 -20z"></path>
<path d="M5085 1930 c-4 -6 -11 -8 -16 -5 -13 9 -13 8 27 -85 35 -84 53 -115&#xA;51 -89 0 8 1 32 2 54 1 30 4 36 11 25 8 -13 10 -12 10 3 0 10 5 15 10 12 13&#xA;-8 13 5 0 25 -5 8 -10 10 -10 4 0 -7 -7 -15 -16 -18 -8 -3 -12 -2 -9 3 3 5 1&#xA;12 -4 15 -5 3 -7 16 -3 28 3 14 1 19 -6 14 -8 -5 -10 -2 -6 8 4 11 0 16 -14&#xA;16 -12 0 -24 -5 -27 -10z"></path>
<path d="M8308 1890 c-1 -28 0 -50 5 -50 4 0 7 23 7 50 0 65 -7 65 -12 0z"></path>
<path d="M8890 1931 c0 -6 4 -13 10 -16 6 -3 7 1 4 9 -7 18 -14 21 -14 7z"></path>
<path d="M8850 1920 c-8 -5 -10 -10 -5 -10 6 0 17 5 25 10 8 5 11 10 5 10 -5&#xA;0 -17 -5 -25 -10z"></path>
<path d="M8630 1909 c0 -2 -16 -42 -35 -88 -24 -55 -30 -79 -19 -70 18 14 53&#xA;17 72 5 11 -7 28 23 63 111 8 21 7 21 -16 11 -13 -6 -22 -15 -19 -19 3 -5 0&#xA;-9 -5 -9 -6 0 -11 -7 -11 -16 0 -8 5 -12 11 -9 6 4 5 -2 -3 -14 -7 -12 -16&#xA;-21 -20 -21 -11 0 -10 33 1 62 6 17 5 29 -5 43 -8 10 -14 17 -14 14z"></path>
<path d="M8911 1885 c0 -5 11 -30 24 -55 13 -25 24 -40 24 -35 0 6 -11 30 -24&#xA;55 -13 25 -24 41 -24 35z"></path>
<path d="M8000 1870 c0 -5 5 -10 10 -10 6 0 10 5 10 10 0 6 -4 10 -10 10 -5 0&#xA;-10 -4 -10 -10z"></path>
<path d="M8857 1862 c-19 -4 -17 -22 9 -74 23 -44 18 -48 -53 -49 -63 -1 -65&#xA;-2 -25 -9 24 -3 47 -11 50 -17 5 -7 19 -2 42 13 19 13 29 24 23 24 -18 0 -26&#xA;39 -11 57 10 13 10 17 0 20 -6 3 -10 8 -8 12 8 13 -9 27 -27 23z"></path>
<path d="M4308 1833 c6 -2 18 -2 25 0 6 3 1 5 -13 5 -14 0 -19 -2 -12 -5z"></path>
<path d="M5195 1791 c1 -24 7 -46 12 -50 5 -3 19 -19 31 -35 31 -40 27 -23&#xA;-12 59 l-34 70 3 -44z"></path>
<path d="M8284 1819 c-3 -6 -20 -17 -38 -25 -24 -10 -26 -13 -10 -14 11 0 26&#xA;6 33 13 10 9 10 7 0 -11 -8 -12 -20 -20 -28 -17 -11 4 -12 3 -1 -10 7 -8 16&#xA;-13 20 -10 4 3 10 -1 13 -9 4 -10 -1 -13 -16 -10 -12 2 -16 2 -9 -2 6 -3 12&#xA;-12 12 -20 0 -9 -5 -12 -12 -8 -7 4 -4 -2 6 -14 24 -27 3 -31 -33 -5 -23 16&#xA;-23 15 3 -23 30 -44 46 -49 63 -19 11 17 12 18 13 3 0 -10 5 -18 11 -18 6 0 8&#xA;9 3 22 -6 21 -5 22 11 8 13 -10 10 -2 -8 24 l-26 40 34 23 c40 27 44 33 15 26&#xA;-16 -4 -20 0 -20 21 0 14 -4 26 -10 26 -5 0 -10 -5 -10 -11 0 -5 -5 -7 -10 -4&#xA;-8 5 -7 11 1 21 6 8 9 14 6 14 -3 0 -9 -5 -13 -11z m6 -123 c0 -2 -7 -7 -16&#xA;-10 -8 -3 -12 -2 -9 4 6 10 25 14 25 6z"></path>
<path d="M4246 1798 c-20 -17 -16 -17 129 -16 83 1 135 3 116 5 -19 3 -40 11&#xA;-48 19 -22 22 -168 16 -197 -8z"></path>
<path d="M4624 1675 c0 -71 1 -99 3 -62 2 37 2 96 0 130 -2 34 -3 4 -3 -68z"></path>
<path d="M6500 1760 c0 -22 4 -40 8 -40 4 0 6 16 4 35 l-4 35 78 0 c53 0 74&#xA;-3 64 -10 -11 -7 -9 -11 12 -19 52 -20 63 -18 66 12 l3 27 -115 0 -116 0 0&#xA;-40z"></path>
<path d="M8920 1790 c0 -5 5 -10 11 -10 5 0 7 5 4 10 -3 6 -8 10 -11 10 -2 0&#xA;-4 -4 -4 -10z"></path>
<path d="M6532 1759 c-9 -13 -9 -20 0 -25 7 -4 8 -3 4 4 -6 11 6 16 27 13 12&#xA;-2 8 17 -6 22 -7 3 -19 -3 -25 -14z"></path>
<path d="M8113 1773 c9 -2 23 -2 30 0 6 3 -1 5 -18 5 -16 0 -22 -2 -12 -5z"></path>
<path d="M8961 1775 c0 -5 8 -26 19 -45 11 -19 19 -30 19 -25 0 6 -8 26 -19&#xA;45 -11 19 -19 31 -19 25z"></path>
<path d="M4212 1745 c0 -16 2 -22 5 -12 2 9 2 23 0 30 -3 6 -5 -1 -5 -18z"></path>
<path d="M8930 1760 c0 -5 5 -10 11 -10 5 0 7 5 4 10 -3 6 -8 10 -11 10 -2 0&#xA;-4 -4 -4 -10z"></path>
<path d="M4533 1680 c0 -47 2 -66 4 -42 2 23 2 61 0 85 -2 23 -4 4 -4 -43z"></path>
<path d="M8590 1736 c0 -18 -29 -48 -40 -41 -4 2 -22 -30 -41 -73 -18 -42 -37&#xA;-83 -42 -89 -7 -10 3 -13 45 -13 l55 0 24 63 c13 34 25 67 28 72 2 6 -4 1 -13&#xA;-10 -19 -24 -21 -7 -2 18 9 12 16 14 21 8 4 -7 45 -11 102 -11 53 0 94 2 92 4&#xA;-4 4 -106 19 -124 18 -5 0 -21 -4 -34 -8 -20 -6 -23 -4 -18 9 5 13 1 17 -16&#xA;17 -12 0 -17 4 -12 8 18 13 14 42 -6 42 -10 0 -19 -6 -19 -14z m-45 -99 c-7&#xA;-11 -11 -26 -8 -33 3 -9 -2 -14 -13 -14 -11 0 -15 4 -9 8 6 4 10 12 11 17 0 6&#xA;4 23 8 38 6 20 11 25 17 16 4 -7 2 -21 -6 -32z m35 -52 c0 -9 -6 -12 -15 -9&#xA;-8 4 -12 10 -9 15 8 14 24 10 24 -6z m-64 -20 c-21 -16 -32 -13 -21 4 3 6 14&#xA;11 23 11 15 -1 15 -2 -2 -15z"></path>
<path d="M5000 1732 c0 -5 10 -17 22 -28 12 -10 18 -13 14 -6 -8 13 39 36 55&#xA;26 5 -3 9 0 9 5 0 6 -21 11 -50 11 -27 0 -50 -4 -50 -8z"></path>
<path d="M8010 1731 c0 -6 5 -13 10 -16 6 -3 10 1 10 9 0 9 -4 16 -10 16 -5 0&#xA;-10 -4 -10 -9z"></path>
<path d="M8036 1700 c-4 -19 -6 -62 -3 -95 3 -57 3 -56 5 18 l2 77 53 1 52 1&#xA;-40 8 c-22 4 -43 6 -47 4 -3 -2 -8 2 -11 8 -2 7 -8 -3 -11 -22z"></path>
<path d="M7670 1677 c-8 -17 -30 -42 -49 -54 -26 -18 -30 -23 -14 -23 10 0 24&#xA;-5 29 -10 16 -16 41 -2 49 27 3 14 4 28 1 31 -3 3 1 10 9 16 13 9 13 14 3 28&#xA;-12 16 -14 14 -28 -15z"></path>
<path d="M7301 1691 c-1 -23 37 -96 61 -117 l22 -19 -19 30 -18 30 29 -19 29&#xA;-19 -19 22 c-11 12 -26 19 -33 17 -17 -7 -36 30 -27 56 4 13 2 18 -4 14 -6 -3&#xA;-13 0 -15 6 -4 9 -6 9 -6 -1z"></path>
<path d="M4748 1601 l-37 -81 54 0 53 0 17 43 c29 70 29 73 2 39 -23 -31 -26&#xA;-32 -32 -13 -3 12 -4 24 -2 28 3 5 0 21 -7 37 -11 28 -12 28 -48 -53z"></path>
<path d="M5035 1670 c-21 -5 -6 -8 54 -9 46 0 82 1 79 4 -9 10 -102 13 -133 5z"></path>
<path d="M7973 1659 c-1 -10 2 -19 8 -19 11 0 12 27 1 34 -4 2 -9 -4 -9 -15z"></path>
<path d="M5531 1636 c24 -37 26 -38 89 -41 66 -3 65 -1 -3 10 -21 3 -53 20&#xA;-74 38 l-36 32 24 -39z"></path>
<path d="M7406 1643 c-4 -10 -4 -14 0 -11 4 4 16 2 28 -4 21 -11 21 -11 2 11&#xA;-23 25 -22 25 -30 4z"></path>
<path d="M7750 1638 c-8 -10 -24 -21 -35 -23 -11 -2 -22 -4 -24 -4 -2 -1 3 -8&#xA;10 -17 11 -14 10 -18 -6 -30 -11 -8 -25 -12 -33 -9 -7 2 -10 0 -7 -5 3 -6 1&#xA;-10 -6 -10 -7 0 -10 -3 -7 -6 16 -15 91 44 115 89 17 35 14 42 -7 15z"></path>
<path d="M4213 1615 c0 -22 2 -30 4 -17 2 12 2 30 0 40 -3 9 -5 -1 -4 -23z"></path>
<path d="M6846 1636 c5 -12 2 -15 -10 -10 -9 3 -16 1 -16 -5 0 -6 -5 -11 -11&#xA;-11 -5 0 -7 6 -3 13 4 6 -3 3 -15 -8 l-23 -20 36 -32 c20 -18 41 -33 48 -33 7&#xA;0 -1 9 -18 19 -18 11 -35 25 -40 33 -4 7 2 5 13 -4 11 -10 28 -18 39 -17 10 0&#xA;13 3 7 6 -10 3 -9 11 2 33 13 25 13 29 0 40 -13 11 -14 10 -9 -4z"></path>
<path d="M7121 1634 c0 -11 3 -14 6 -6 3 7 2 16 -1 19 -3 4 -6 -2 -5 -13z"></path>
<path d="M4131 1602 c1 -20 4 -28 6 -18 4 15 7 16 14 5 6 -10 9 -7 9 12 0 15&#xA;-7 29 -15 33 -12 4 -15 -3 -14 -32z"></path>
<path d="M5725 1619 c-16 -10 -25 -19 -19 -19 7 0 22 9 35 20 30 24 23 24 -16&#xA;-1z"></path>
<path d="M5290 1601 c0 -6 4 -13 10 -16 6 -3 7 1 4 9 -7 18 -14 21 -14 7z"></path>
<path d="M7078 1569 c-20 -21 -33 -39 -28 -39 10 0 70 61 70 72 0 12 -2 11&#xA;-42 -33z"></path>
<path d="M5200 1595 c0 -5 5 -17 10 -25 5 -8 10 -10 10 -5 0 6 -5 17 -10 25&#xA;-5 8 -10 11 -10 5z"></path>
<path d="M6928 1593 c6 -2 18 -2 25 0 6 3 1 5 -13 5 -14 0 -19 -2 -12 -5z"></path>
<path d="M7523 1593 c9 -2 25 -2 35 0 9 3 1 5 -18 5 -19 0 -27 -2 -17 -5z"></path>
<path d="M8305 1573 c6 -24 5 -25 -11 -12 -16 13 -16 12 0 -13 16 -25 24 -28&#xA;73 -28 59 0 60 4 12 60 -20 24 -20 23 2 -15 12 -22 16 -34 9 -27 -8 6 -22 12&#xA;-32 12 -10 0 -18 5 -18 11 0 5 5 7 10 4 15 -9 12 2 -6 19 -26 26 -47 20 -39&#xA;-11z"></path>
<path d="M9049 1570 c-1 -8 -1 -19 0 -23 1 -4 -4 -7 -11 -6 -7 1 -24 -3 -38&#xA;-9 -22 -10 -19 -11 28 -11 56 -1 59 1 37 39 -9 16 -15 20 -16 10z"></path>
<path d="M7605 1550 c3 -5 10 -10 16 -10 5 0 9 5 9 10 0 6 -7 10 -16 10 -8 0&#xA;-12 -4 -9 -10z"></path>
<path d="M4138 1523 c6 -2 18 -2 25 0 6 3 1 5 -13 5 -14 0 -19 -2 -12 -5z"></path>
<path d="M5288 1523 c7 -3 16 -2 19 1 4 3 -2 6 -13 5 -11 0 -14 -3 -6 -6z"></path>
<path d="M6928 1513 c12 -2 32 -2 45 0 12 2 2 4 -23 4 -25 0 -35 -2 -22 -4z"></path>
<path d="M7518 1513 c12 -2 32 -2 45 0 12 2 2 4 -23 4 -25 0 -35 -2 -22 -4z"></path>
<path d="M3822 1138 c-7 -7 -12 -22 -12 -34 0 -23 26 -51 37 -40 3 3 1 6 -6 6&#xA;-8 0 -11 6 -7 16 3 8 2 12 -4 9 -14 -9 -12 7 4 28 7 9 20 17 29 17 9 0 21 -8&#xA;26 -17 6 -10 11 -13 11 -7 0 17 -22 34 -45 34 -12 0 -26 -5 -33 -12z"></path>
<path d="M4043 1133 c-23 -3 -33 -10 -33 -21 0 -10 3 -13 8 -7 4 6 17 12 29&#xA;12 21 2 22 -2 22 -109 1 -61 3 -114 6 -116 3 -3 5 52 5 121 0 70 -1 126 -2&#xA;125 -2 0 -18 -3 -35 -5z"></path>
<path d="M4202 1013 l2 -128 3 108 c2 60 8 105 13 102 5 -3 11 -1 15 5 18 29&#xA;25 -3 28 -127 l3 -138 2 146 c2 144 2 147 -20 153 -48 13 -48 13 -46 -121z"></path>
<path d="M3290 1095 c0 -2 12 -34 27 -70 26 -63 27 -65 39 -43 7 13 11 39 8&#xA;58 l-4 35 15 -25 c12 -17 14 -19 10 -5 -4 11 -10 28 -12 38 -4 12 -16 17 -44&#xA;17 -22 0 -39 -2 -39 -5z"></path>
<path d="M4013 1000 c1 -69 2 -77 4 -30 2 35 9 68 16 72 9 6 9 8 0 8 -6 0 -14&#xA;10 -16 23 -2 12 -4 -21 -4 -73z"></path>
<path d="M3672 1050 c-55 -135 -60 -152 -41 -133 8 8 20 8 35 3 21 -8 24 -4&#xA;48 57 25 66 30 102 6 43 -7 -16 -16 -30 -21 -30 -12 0 -7 21 9 38 13 14 7 36&#xA;-8 27 -4 -3 -10 1 -13 7 -3 8 -9 3 -15 -12z"></path>
<path d="M6290 1025 c0 -43 -1 -45 -30 -45 -27 0 -30 -3 -30 -30 0 -16 4 -30&#xA;9 -30 4 0 6 11 3 25 -3 20 0 25 16 25 12 0 26 -9 32 -20 23 -42 63 15 58 83&#xA;-2 33 -5 37 -30 37 -27 0 -28 -2 -28 -45z"></path>
<path d="M3821 788 c0 -127 3 -185 9 -170 5 12 9 97 7 187 -2 164 -2 165 20&#xA;165 21 0 22 -5 26 -97 l3 -98 2 103 2 102 -35 0 -35 0 1 -192z"></path>
<path d="M4466 968 c5 -8 2 -9 -10 -5 -9 4 -30 0 -46 -8 -27 -14 -28 -18 -18&#xA;-41 8 -17 16 -23 27 -18 9 4 31 12 50 19 31 11 32 12 10 18 -23 6 -23 7 -5 20&#xA;10 7 37 14 59 16 65 3 57 11 -12 11 -45 0 -60 -3 -55 -12z m-12 -33 c3 -9 0&#xA;-15 -9 -15 -9 0 -12 6 -9 15 4 8 7 15 9 15 2 0 5 -7 9 -15z"></path>
<path d="M4863 964 c-18 -9 -39 -26 -47 -38 -13 -20 -12 -22 2 -21 10 1 37 12&#xA;61 24 24 12 51 24 60 26 9 2 25 7 35 11 14 5 17 4 12 -4 -8 -13 -5 -14 37 -17&#xA;26 -2 27 -1 13 13 -23 23 -132 27 -173 6z"></path>
<path d="M5080 971 c0 -4 10 -8 23 -7 18 1 23 -6 28 -34 l6 -35 2 43 c1 40 0&#xA;42 -29 42 -16 0 -30 -4 -30 -9z"></path>
<path d="M5360 969 c0 -8 15 -10 49 -5 30 4 59 2 75 -5 30 -14 34 -29 9 -29&#xA;-14 0 -15 -2 -4 -9 7 -5 10 -14 7 -20 -4 -6 0 -21 8 -33 9 -12 16 -17 16 -10&#xA;0 10 5 10 23 1 12 -7 26 -17 30 -23 17 -22 -4 50 -22 74 -33 47 -79 70 -137&#xA;70 -34 0 -54 -4 -54 -11z"></path>
<path d="M5947 973 c-9 -2 -15 -9 -12 -14 3 -5 0 -6 -8 -3 -20 7 -74 -57 -86&#xA;-103 -20 -70 -8 -150 28 -194 l18 -23 18 22 c15 17 22 19 39 10 15 -8 12 -1&#xA;-11 26 -18 20 -33 46 -33 56 0 19 7 20 98 20 62 0 92 4 83 9 -12 8 -8 11 15&#xA;18 21 6 0 9 -81 13 -102 5 -110 6 -109 25 1 11 5 28 9 38 6 14 2 20 -14 24&#xA;-25 6 -27 16 -4 34 11 10 17 11 20 3 5 -14 63 11 63 27 0 12 37 12 45 -1 7&#xA;-11 53 -6 64 6 3 4 -2 4 -11 1 -10 -4 -18 -2 -18 3 0 10 -79 12 -113 3z m58&#xA;-191 c-3 -3 -11 0 -18 7 -9 10 -8 11 6 5 10 -3 15 -9 12 -12z m-158 -14 c-3&#xA;-8 -6 -5 -6 6 -1 11 2 17 5 13 3 -3 4 -12 1 -19z m73 -79 c0 -18 -18 -9 -23&#xA;12 -4 16 -3 18 9 8 8 -6 14 -15 14 -20z"></path>
<path d="M6393 973 c9 -2 23 -2 30 0 6 3 -1 5 -18 5 -16 0 -22 -2 -12 -5z"></path>
<path d="M6781 966 c-9 -10 -9 -16 -1 -21 16 -10 31 7 21 23 -6 10 -10 10 -20&#xA;-2z"></path>
<path d="M6865 970 c-32 -14 -72 -50 -56 -50 11 0 10 -5 -4 -20 -10 -11 -13&#xA;-20 -7 -20 7 0 9 -14 7 -37 l-5 -38 9 35 c15 57 77 93 129 74 37 -13 64 -55&#xA;65 -103 2 -34 5 -41 22 -41 12 0 16 3 9 8 -6 4 -14 19 -18 35 -6 26 1 33 27&#xA;28 5 -1 6 3 2 9 -3 5 -12 10 -19 10 -8 0 -16 9 -19 20 -3 13 0 20 10 20 8 0&#xA;11 -5 7 -12 -4 -7 -3 -8 4 -4 6 4 9 13 5 21 -6 18 -8 18 -35 4 -11 -6 -18 -7&#xA;-15 -2 8 13 -15 28 -48 31 -41 4 -55 9 -55 22 0 11 61 13 98 4 14 -4 21 -12&#xA;18 -20 -3 -8 -1 -14 3 -14 5 0 11 6 13 12 10 28 42 -47 48 -110 l7 -67 2 53&#xA;c1 68 -19 116 -61 142 -35 21 -106 26 -143 10z"></path>
<path d="M7234 969 c-33 -9 -61 -35 -50 -46 3 -3 6 -1 6 5 0 7 15 12 35 12 24&#xA;0 35 5 35 15 0 10 16 15 63 18 l62 3 -60 1 c-33 1 -74 -3 -91 -8z"></path>
<path d="M7590 940 c0 -42 14 -54 25 -20 7 22 25 26 41 10 7 -7 9 -1 6 20 -4&#xA;27 -8 30 -38 30 -33 0 -34 -1 -34 -40z"></path>
<path d="M7710 967 c-14 -7 -25 -19 -25 -27 0 -8 -12 -26 -27 -38 -16 -13 -28&#xA;-29 -28 -35 0 -7 10 -1 21 13 11 14 18 19 14 13 -13 -27 7 -33 26 -9 35 45&#xA;111 43 146 -3 7 -9 13 -35 13 -59 0 -40 1 -42 20 -32 23 12 26 35 6 43 -8 3&#xA;-18 21 -21 40 -5 26 -14 36 -40 46 -35 12 -55 41 -29 41 9 0 12 -5 8 -12 -4&#xA;-7 2 -5 14 5 20 18 20 18 16 0 -4 -13 0 -20 10 -20 12 0 13 4 5 14 -9 10 -8&#xA;13 2 13 11 0 11 2 -1 10 -21 14 -100 12 -130 -3z"></path>
<path d="M8068 970 c12 -5 22 -12 22 -15 0 -4 -5 -3 -12 1 -7 4 -8 3 -4 -4 4&#xA;-7 1 -12 -6 -12 -9 0 -9 -3 2 -10 10 -7 0 -8 -35 -5 -45 4 -46 4 -12 -4 73&#xA;-16 81 -33 87 -189 l5 -137 33 0 32 0 0 125 c0 121 -11 193 -30 205 -6 4 -7&#xA;-1 -3 -12 5 -14 2 -13 -17 5 -13 12 -20 25 -17 29 4 3 7 1 7 -6 0 -7 5 -9 11&#xA;-5 14 8 -39 44 -66 43 -18 0 -18 -1 3 -9z m28 -45 c-3 -8 -1 -15 4 -15 6 0 10&#xA;-5 10 -11 0 -6 -6 -9 -12 -7 -15 5 -20 48 -6 48 6 0 8 -7 4 -15z"></path>
<path d="M8375 971 c-32 -14 -84 -71 -96 -109 -24 -74 10 -222 45 -193 7 6 17&#xA;7 22 3 4 -4 2 2 -6 13 -15 19 -14 19 11 3 l25 -16 -23 46 -24 47 73 3 c50 2&#xA;68 6 58 12 -14 9 11 14 73 13 9 0 17 4 17 9 0 4 -47 8 -105 8 -116 0 -120 3&#xA;-90 60 19 37 48 52 98 52 28 -1 37 2 29 10 -15 15 -74 2 -105 -22 -27 -21 -52&#xA;-26 -61 -11 -9 15 30 42 49 35 12 -5 16 -4 11 4 -3 6 -1 14 5 18 8 4 9 3 5 -4&#xA;-4 -7 -3 -12 3 -12 5 0 14 6 18 14 4 8 28 16 53 19 43 3 43 4 -10 5 -30 0 -64&#xA;-3 -75 -7z"></path>
<path d="M8744 966 c-40 -18 -48 -30 -34 -55 9 -19 13 -19 45 -5 42 17 116 18&#xA;134 2 10 -11 12 -9 9 7 -2 14 2 20 15 19 9 -1 17 2 17 8 0 5 6 6 13 2 6 -4 4&#xA;2 -6 12 -23 24 -147 31 -193 10z m146 -2 c0 -2 -12 -10 -28 -18 -24 -12 -31&#xA;-12 -52 0 -25 15 -25 15 13 11 20 -1 37 0 37 3 0 4 7 7 15 7 8 0 15 -2 15 -3z"></path>
<path d="M9380 913 c0 -40 4 -63 9 -55 4 7 18 14 29 15 18 1 22 8 22 38 0 21&#xA;3 44 6 53 5 13 -1 16 -30 16 l-36 0 0 -67z"></path>
<path d="M9548 973 c12 -2 22 -9 22 -15 0 -5 -7 -7 -15 -4 -13 5 50 -95 92&#xA;-145 10 -13 7 -24 -24 -70 -20 -29 -29 -48 -19 -40 9 8 28 16 41 17 24 3 24 2&#xA;9 -22 -9 -13 -14 -24 -11 -24 3 0 15 16 27 35 14 23 26 33 34 28 7 -4 1 2 -12&#xA;13 -14 12 -22 26 -18 32 3 6 2 13 -4 17 -19 12 13 44 41 42 24 -2 26 -4 13&#xA;-18 -20 -23 -18 -33 17 -58 l32 -24 -18 30 -18 30 66 92 66 91 -39 0 c-46 0&#xA;-60 -16 -31 -36 l21 -15 -26 -39 c-15 -22 -32 -40 -40 -40 -7 0 -20 -3 -28 -6&#xA;-12 -5 -15 -2 -10 12 5 15 4 16 -4 5 -9 -12 -13 -12 -26 -2 -9 8 -16 10 -16 6&#xA;0 -4 -6 -2 -14 4 -8 7 -22 11 -32 9 -9 -2 -19 2 -21 7 -4 12 37 13 56 1 7 -5&#xA;1 10 -14 33 -15 22 -31 38 -36 35 -5 -3 -6 2 -3 10 5 13 -2 16 -37 15 -24 -1&#xA;-34 -4 -21 -6z"></path>
<path d="M8524 954 c18 -18 13 -34 -11 -34 -13 0 -11 -5 8 -26 18 -19 30 -24&#xA;51 -20 18 3 28 1 28 -6 0 -6 3 -9 6 -6 9 10 -24 65 -52 87 -31 25 -53 28 -30&#xA;5z"></path>
<path d="M4573 949 c9 -6 15 -15 12 -20 -4 -5 -11 -7 -16 -4 -17 11 -9 -4 16&#xA;-29 14 -14 25 -37 25 -51 0 -24 -3 -25 -52 -25 -133 -2 -178 -28 -185 -107 -4&#xA;-42 -2 -53 18 -74 13 -14 18 -18 12 -9 -10 13 -10 19 -1 28 15 15 35 15 44 0&#xA;5 -8 2 -9 -10 -5 -14 6 -15 3 -6 -13 6 -11 18 -20 27 -20 13 0 13 3 3 15 -11&#xA;13 -10 14 6 9 14 -5 13 -2 -4 11 -19 14 -23 25 -20 56 2 21 -1 41 -7 43 -5 2&#xA;-1 5 10 6 11 0 53 3 94 6 l73 6 -3 -45 c-3 -35 -1 -43 8 -35 22 18 14 -6 -12&#xA;-36 -33 -38 -32 -43 4 -14 33 27 46 87 35 168 -5 34 -3 50 5 50 13 0 14 -7 12&#xA;-75 -1 -27 3 -57 9 -65 12 -19 14 148 1 168 -5 9 -22 12 -42 10 -28 -2 -33 0&#xA;-31 15 4 21 -15 47 -32 47 -6 0 -3 -5 7 -11z m-186 -241 c-3 -8 -6 -5 -6 6 -1&#xA;11 2 17 5 13 3 -3 4 -12 1 -19z"></path>
<path d="M5279 923 l-24 -28 28 24 c15 14 27 26 27 28 0 8 -8 1 -31 -24z"></path>
<path d="M6116 934 c6 -16 5 -17 -7 -6 -23 21 -30 13 -12 -15 l18 -26 -30 18&#xA;-30 19 25 -25 c16 -15 37 -24 56 -24 31 0 32 1 19 26 -8 14 -21 31 -30 39 -13&#xA;11 -15 10 -9 -6z"></path>
<path d="M9171 910 c-2 -25 -3 -47 -3 -50 0 -3 -10 -7 -23 -8 -15 -1 -25 5&#xA;-28 16 -3 9 -5 -21 -5 -68 1 -53 3 -72 7 -50 10 56 42 44 55 -21 3 -15 15 -37&#xA;26 -50 l21 -24 -18 29 c-14 23 -19 59 -24 150 -3 67 -7 101 -8 76z"></path>
<path d="M4915 924 c-20 -7 -37 -14 -39 -16 -1 -1 -8 -12 -16 -23 -10 -13 -3&#xA;-10 19 8 29 24 42 28 82 25 48 -3 58 6 15 14 -14 3 -41 -1 -61 -8z"></path>
<path d="M5375 930 c-3 -5 1 -10 10 -10 9 0 13 5 10 10 -3 6 -8 10 -10 10 -2&#xA;0 -7 -4 -10 -10z"></path>
<path d="M5955 924 c-20 -15 -12 -17 19 -5 11 4 15 10 10 13 -5 4 -18 0 -29&#xA;-8z"></path>
<path d="M5418 923 c6 -2 18 -2 25 0 6 3 1 5 -13 5 -14 0 -19 -2 -12 -5z"></path>
<path d="M6383 923 c15 -2 37 -2 50 0 12 2 0 4 -28 4 -27 0 -38 -2 -22 -4z"></path>
<path d="M6740 915 c0 -8 2 -15 4 -15 2 0 6 7 10 15 3 8 1 15 -4 15 -6 0 -10&#xA;-7 -10 -15z"></path>
<path d="M7283 923 c9 -2 25 -2 35 0 9 3 1 5 -18 5 -19 0 -27 -2 -17 -5z"></path>
<path d="M5467 909 c7 -7 15 -10 18 -7 3 3 -2 9 -12 12 -14 6 -15 5 -6 -5z"></path>
<path d="M3434 894 c5 -13 4 -14 -7 -6 -10 9 -18 8 -32 -2 -18 -13 -17 -17 14&#xA;-95 18 -44 35 -81 38 -81 3 0 3 6 0 13 -15 41 -18 59 -9 53 5 -3 9 2 8 11 0 9&#xA;5 18 13 21 8 2 11 1 8 -4 -2 -5 2 -16 11 -24 14 -13 15 -12 8 5 -4 11 -17 44&#xA;-28 73 -11 28 -22 52 -25 52 -3 0 -2 -7 1 -16z"></path>
<path d="M5043 882 c21 -26 27 -44 27 -83 0 -42 3 -49 19 -49 11 0 27 -10 35&#xA;-22 15 -21 16 -17 16 62 0 73 -2 81 -14 65 -18 -24 -44 -27 -51 -6 -3 10 -17&#xA;29 -32 42 l-27 24 27 -33z"></path>
<path d="M5234 834 c-8 -31 1 -102 18 -138 l12 -27 19 23 c10 13 15 17 11 9&#xA;-4 -9 -3 -12 3 -8 6 4 24 -3 39 -15 28 -22 28 -22 -3 15 -18 21 -33 47 -33 57&#xA;0 18 7 20 88 21 55 0 80 3 67 9 -23 9 -11 16 40 23 17 2 -21 5 -84 6 l-113 1&#xA;6 25 c6 23 4 25 -29 25 -29 0 -36 -4 -41 -26z"></path>
<path d="M7446 838 c-11 -16 -12 -26 -5 -41 8 -15 7 -23 -5 -35 -14 -14 -16&#xA;-14 -17 -2 -1 8 -1 18 0 22 0 4 -5 5 -12 2 -7 -2 -21 2 -32 10 -20 15 -20 15&#xA;1 10 23 -6 49 18 41 38 -4 8 -6 7 -6 -4 -1 -14 -10 -18 -37 -18 -19 0 -33 -4&#xA;-30 -9 8 -12 -14 -28 -44 -34 -14 -2 5 -5 43 -6 l67 -1 0 -31 c0 -17 -5 -39&#xA;-11 -51 -15 -27 -74 -51 -110 -43 -35 8 -64 47 -56 75 3 11 1 18 -4 14 -5 -3&#xA;-9 -16 -9 -30 0 -13 -3 -24 -6 -24 -12 0 -32 28 -37 51 -3 15 -5 8 -6 -18 0&#xA;-23 4 -53 10 -66 13 -29 51 -55 57 -38 5 14 52 14 87 1 22 -8 34 -6 61 11 19&#xA;11 34 29 34 39 0 26 39 47 51 29 5 -9 9 23 9 79 0 94 -7 109 -34 70z"></path>
<path d="M8981 853 c-1 -7 -12 -13 -26 -13 -14 0 -25 -4 -25 -10 0 -5 -18 -10&#xA;-41 -10 -45 0 -52 -24 -8 -27 46 -2 44 -6 -6 -13 l-50 -7 53 -1 c48 -2 52 -4&#xA;52 -27 0 -85 -101 -133 -162 -78 -10 9 -18 26 -18 39 0 13 -4 26 -10 29 -16&#xA;10 -50 15 -50 7 0 -13 15 -27 29 -27 8 0 16 -6 19 -14 3 -9 0 -11 -9 -6 -11 6&#xA;-12 5 -1 -6 10 -11 9 -17 -10 -30 -18 -14 -20 -20 -9 -33 32 -39 152 -46 190&#xA;-12 22 20 31 20 31 0 0 -11 8 -14 33 -12 l32 3 3 106 c1 58 -2 116 -7 130 -5&#xA;13 -10 18 -10 12z m-10 -196 c-8 -8 -11 -7 -11 4 0 20 13 34 18 19 3 -7 -1&#xA;-17 -7 -23z"></path>
<path d="M3569 788 l-21 -57 25 -25 24 -24 26 66 c15 37 29 76 33 87 l7 20&#xA;-16 -20 c-14 -17 -16 -18 -17 -3 0 10 -7 16 -20 15 -14 -1 -25 -17 -41 -59z"></path>
<path d="M8612 825 c0 -16 2 -22 5 -12 2 9 2 23 0 30 -3 6 -5 -1 -5 -18z"></path>
<path d="M4816 814 c-14 -10 -23 -11 -33 -3 -10 9 -13 6 -12 -12 1 -31 17 -80&#xA;18 -58 1 9 9 23 18 30 11 10 14 10 9 2 -4 -7 -2 -13 4 -13 14 0 22 23 18 49&#xA;-3 18 -5 18 -22 5z"></path>
<path d="M6340 819 c0 -7 -10 -9 -25 -7 -24 5 -25 3 -25 -42 0 -43 2 -48 20&#xA;-43 11 3 18 9 15 13 -3 5 -1 11 4 14 5 4 12 -4 14 -16 2 -13 5 3 6 35 0 31 -1&#xA;57 -4 57 -3 0 -5 -5 -5 -11z"></path>
<path d="M6740 809 c0 -11 4 -18 10 -14 5 3 7 12 3 20 -7 21 -13 19 -13 -6z"></path>
<path d="M7913 760 c0 -41 2 -58 4 -37 2 20 2 54 0 75 -2 20 -4 3 -4 -38z"></path>
<path d="M4010 760 c0 -35 3 -61 6 -57 7 7 7 107 0 115 -3 3 -6 -23 -6 -58z"></path>
<path d="M7226 801 c-10 -16 21 -20 41 -6 17 13 16 14 -9 15 -15 0 -29 -4 -32&#xA;-9z"></path>
<path d="M4070 759 c0 -5 -4 -8 -8 -5 -16 10 -35 -12 -27 -30 8 -18 8 -18 12&#xA;-1 7 26 18 21 21 -10 4 -46 12 -39 12 10 0 26 -2 47 -5 47 -3 0 -5 -5 -5 -11z"></path>
<path d="M7649 718 c-1 -24 -1 -46 0 -50 0 -5 -6 -8 -14 -8 -21 0 -19 -26 2&#xA;-34 15 -6 15 -8 3 -16 -13 -8 -12 -10 3 -10 15 0 17 10 17 80 0 83 -9 113 -11&#xA;38z"></path>
<path d="M9362 711 c-7 -16 -26 -36 -42 -43 -24 -10 -27 -15 -17 -27 10 -12 9&#xA;-13 -1 -7 -11 7 -11 4 -1 -12 10 -16 17 -18 30 -11 10 5 21 14 24 19 10 17 25&#xA;11 25 -10 0 -16 7 -20 36 -20 33 0 35 2 32 27 -2 23 -8 28 -33 29 -44 2 -47 3&#xA;-40 14 3 6 0 10 -7 10 -10 0 -10 2 0 9 8 4 12 18 10 30 -3 20 -4 19 -16 -8z"></path>
<path d="M5068 713 c-10 -2 -18 -9 -18 -14 0 -5 -5 -9 -11 -9 -5 0 -7 5 -3 11&#xA;3 6 -5 3 -20 -6 -26 -17 -78 -17 -121 0 -17 7 -18 6 -7 -6 8 -9 34 -14 71 -14&#xA;33 0 57 -3 54 -7 -2 -5 1 -8 7 -8 6 0 8 -5 5 -10 -4 -6 -12 -7 -18 -3 -20 13&#xA;-97 14 -119 2 -17 -9 -20 -9 -16 2 4 9 -2 14 -18 14 -20 0 -21 -2 -8 -16 39&#xA;-44 153 -42 200 2 l24 22 0 -37 c0 -20 -6 -52 -14 -71 -8 -18 -11 -36 -8 -40&#xA;4 -3 -2 -3 -12 1 -15 6 -17 4 -11 -6 5 -8 4 -11 -3 -7 -5 4 -21 3 -34 -2 -17&#xA;-7 -18 -10 -5 -10 9 -1 17 -7 17 -15 0 -15 46 -11 56 5 3 5 11 9 17 9 7 0 6&#xA;-4 -3 -10 -8 -5 -10 -10 -4 -10 18 0 54 45 64 81 6 19 9 56 9 84 -2 48 -2 49&#xA;-8 12 -6 -35 -7 -37 -25 -24 -23 17 -31 48 -10 40 8 -3 14 0 14 6 0 7 -7 14&#xA;-15 17 -8 4 -12 10 -9 15 3 5 4 8 2 8 -2 -1 -11 -3 -20 -6z"></path>
<path d="M7062 695 c0 -16 2 -22 5 -12 2 9 2 23 0 30 -3 6 -5 -1 -5 -18z"></path>
<path d="M5509 685 c-8 -8 -32 -20 -53 -28 l-39 -13 32 -23 c28 -20 36 -22 61&#xA;-11 47 19 55 35 33 64 -17 21 -22 23 -34 11z"></path>
<path d="M4200 643 c0 -42 0 -43 35 -43 35 0 35 1 35 43 0 41 0 42 -35 42 -35&#xA;0 -35 -1 -35 -42z"></path>
<path d="M8536 675 c-17 -13 -18 -15 -3 -15 9 0 17 -5 17 -11 0 -8 6 -7 17 2&#xA;14 12 16 12 11 -1 -3 -8 -14 -15 -26 -14 -12 0 -23 -7 -25 -18 -6 -23 -2 -23&#xA;39 3 39 24 41 30 16 52 -22 20 -22 20 -46 2z"></path>
<path d="M6074 662 c-17 -9 -42 -12 -67 -9 -27 4 -36 2 -26 -4 7 -5 25 -9 40&#xA;-9 14 0 29 -4 35 -10 6 -6 21 -6 43 0 29 8 31 8 19 -7 -12 -15 -11 -15 9 -5&#xA;29 16 38 31 24 45 -16 16 -45 16 -77 -1z"></path>
<path d="M3460 667 c0 -4 7 -22 16 -38 13 -26 20 -30 51 -27 31 3 39 8 50 36&#xA;10 23 10 31 2 26 -6 -4 -28 -8 -47 -9 -20 -1 -38 -8 -40 -15 -3 -8 -9 -4 -18&#xA;11 -7 13 -13 20 -14 16z m100 -47 c0 -5 -2 -10 -4 -10 -3 0 -8 5 -11 10 -3 6&#xA;-1 10 4 10 6 0 11 -4 11 -10z"></path>
<path d="M7910 651 c0 -13 -9 -21 -30 -26 -41 -9 -38 -25 5 -25 33 0 35 2 35&#xA;35 0 19 -2 35 -5 35 -3 0 -5 -9 -5 -19z"></path>
<path d="M6376 648 c3 -4 -4 -16 -15 -27 -16 -16 -17 -20 -4 -25 22 -9 69 -7&#xA;97 4 21 8 24 13 17 32 -6 18 -16 22 -54 23 -25 0 -43 -3 -41 -7z"></path>
<path d="M9810 645 c-7 -9 -19 -14 -27 -11 -11 4 -11 1 -3 -14 8 -15 21 -20&#xA;51 -20 l40 0 -23 30 c-26 35 -22 34 -38 15z"></path>
<path d="M7060 640 c0 -5 -11 -10 -25 -10 -16 0 -25 -6 -25 -15 0 -10 10 -15&#xA;30 -15 25 0 30 4 30 25 0 14 -2 25 -5 25 -3 0 -5 -4 -5 -10z"></path>
<path d="M7434 625 c2 -7 0 -16 -7 -19 -7 -2 3 -5 21 -5 39 -1 41 10 6 26 -21&#xA;10 -25 10 -20 -2z"></path>
<path d="M9541 626 c-15 -18 -10 -29 12 -24 9 2 12 9 8 21 -6 17 -8 18 -20 3z"></path>
<path d="M4806 525 c-15 -23 -15 -25 7 -39 32 -22 71 -25 73 -6 2 31 5 35 14&#xA;20 8 -13 10 -12 10 3 0 10 -7 17 -18 17 -10 0 -27 7 -38 15 -26 19 -29 19 -48&#xA;-10z m64 -14 c0 -6 -4 -12 -8 -15 -5 -3 -9 1 -9 9 0 8 4 15 9 15 4 0 8 -4 8&#xA;-9z"></path>
<path d="M4928 453 c18 -2 45 -2 60 0 15 2 0 4 -33 4 -33 0 -45 -2 -27 -4z"></path>
</g>
</svg>