<?xml version="1.0" standalone="no"?>

<svg version="1.0" xmlns="http://www.w3.org/2000/svg" width="1255.000000pt" height="832.000000pt" viewBox="0 0 1255.000000 832.000000" preserveAspectRatio="xMidYMid meet">

<g transform="translate(0.000000,832.000000) scale(0.100000,-0.100000)" fill="#000000" stroke="none">
<path d="M5113 6708 c4 -1069 2 -1021 62 -1233 35 -122 140 -331 222 -440 196&#xA;-261 497 -488 928 -700 248 -122 282 -134 332 -116 70 25 253 111 381 180 266&#xA;142 457 275 616 430 225 220 356 440 433 731 l27 105 4 1013 3 1012 -1506 0&#xA;-1506 0 4 -982z m1487 -173 l0 -995 -274 0 -274 0 -4 123 c-2 67 -3 123 -2&#xA;125 1 2 102 -2 224 -8 123 -6 224 -9 226 -7 2 2 -66 93 -151 202 -85 109 -155&#xA;198 -155 199 0 1 50 0 110 -2 61 -3 110 -1 110 2 0 3 -38 52 -84 109 -133 163&#xA;-195 241 -193 243 1 1 45 -1 97 -6 52 -4 96 -7 97 -6 1 1 -52 72 -118 158 -65&#xA;86 -119 159 -119 162 0 3 32 2 72 -1 59 -5 70 -4 63 8 -5 8 -25 39 -45 69 -55&#xA;82 -164 269 -205 351 l-36 71 -63 -113 c-34 -63 -102 -176 -149 -252 l-87&#xA;-139 70 4 c38 2 70 1 70 -1 0 -3 -52 -73 -115 -157 -63 -83 -115 -153 -115&#xA;-155 0 -3 41 -1 92 3 51 4 93 6 95 4 1 -1 -59 -78 -133 -172 -75 -93 -138&#xA;-173 -141 -177 -3 -5 45 -7 106 -5 61 1 111 2 111 0 0 -1 -70 -91 -155 -199&#xA;-85 -108 -153 -199 -151 -201 2 -2 104 2 226 8 122 6 224 10 226 8 2 -2 0 -59&#xA;-3 -126 l-6 -122 -251 2 -251 3 -19 75 c-19 72 -20 116 -23 993 l-4 917 666 0&#xA;665 0 0 -995z m685 277 l138 -164 67 67 67 66 206 -212 207 -212 0 -96 -1 -96&#xA;-207 214 -208 213 -68 -73 c-66 -72 -68 -73 -85 -54 -107 131 -284 335 -290&#xA;335 -5 0 -87 -87 -182 -192 -96 -106 -200 -220 -231 -253 l-58 -60 0 97 0 98&#xA;236 261 c227 249 238 260 254 242 10 -10 79 -92 155 -181z m679 -937 c-2 -392&#xA;-168 -728 -499 -1010 -167 -143 -462 -323 -712 -434 l-113 -50 0 820 0 819&#xA;663 -2 662 -3 -1 -140z m-1364 -935 l0 -559 -82 35 c-116 49 -354 175 -467&#xA;246 -354 223 -605 503 -701 783 l-19 55 635 0 634 0 0 -560z"></path>
<path d="M6912 5888 c-16 -16 -15 -64 3 -101 8 -18 67 -96 129 -175 175 -218&#xA;226 -289 226 -312 0 -22 26 -80 36 -80 4 0 3 12 -1 28 -6 24 -3 23 22 -13 16&#xA;-22 57 -82 91 -132 69 -103 88 -113 136 -68 32 30 31 34 -58 150 -93 121 -110&#xA;146 -92 139 32 -12 15 16 -26 43 -33 22 -77 80 -190 248 -82 121 -164 235&#xA;-183 253 -36 33 -72 41 -93 20z m459 -569 c25 -32 30 -45 22 -58 -18 -29 -40&#xA;-23 -72 20 -29 40 -30 44 -14 61 22 25 27 23 64 -23z"></path>
<path d="M7481 5882 c-24 -17 -221 -303 -221 -322 0 -6 12 -29 26 -51 25 -41&#xA;26 -41 44 -23 58 60 232 295 242 327 22 74 -28 113 -91 69z"></path>
<path d="M7134 5395 c-9 -14 -22 -25 -28 -25 -7 0 -23 -12 -37 -27 -18 -20&#xA;-20 -25 -6 -20 15 6 16 4 6 -14 -6 -12 -47 -69 -90 -128 -43 -58 -79 -111 -79&#xA;-118 0 -15 53 -53 73 -53 18 0 52 42 127 155 63 96 75 109 66 75 -7 -24 -7&#xA;-24 9 -5 9 11 18 31 21 45 3 14 10 33 15 43 8 15 5 28 -15 58 -31 46 -40 48&#xA;-62 14z m27 -45 c26 -14 24 -22 -13 -74 -26 -37 -34 -43 -49 -35 -31 16 -31&#xA;28 1 74 34 50 33 49 61 35z"></path>
<path d="M3304 3736 c-201 -46 -314 -172 -314 -349 0 -176 93 -257 385 -332&#xA;214 -56 255 -79 255 -142 0 -48 -14 -70 -63 -95 -35 -19 -58 -22 -142 -22&#xA;-114 1 -224 31 -308 84 -26 16 -51 30 -56 30 -4 0 -26 -43 -49 -96 -49 -113&#xA;-51 -109 51 -161 95 -47 202 -73 332 -80 181 -9 323 34 413 124 68 68 87 120&#xA;87 233 0 111 -16 152 -86 214 -57 52 -127 81 -307 127 -85 21 -172 49 -193 61&#xA;-51 29 -65 68 -42 117 26 52 71 74 165 79 98 6 170 -9 266 -55 41 -19 75 -33&#xA;76 -31 9 13 76 186 76 196 0 15 -108 68 -182 88 -77 22 -288 27 -364 10z"></path>
<path d="M6064 3730 c-253 -66 -423 -271 -440 -530 -20 -293 177 -555 461&#xA;-615 349 -73 671 123 740 450 28 134 12 263 -50 393 -43 92 -150 202 -242 250&#xA;-134 70 -321 91 -469 52z m269 -230 c86 -27 155 -88 199 -178 30 -61 33 -74&#xA;33 -162 0 -81 -4 -103 -26 -151 -37 -79 -93 -137 -164 -171 -51 -24 -72 -28&#xA;-145 -28 -73 0 -93 4 -145 29 -288 138 -245 598 62 670 63 15 117 12 186 -9z"></path>
<path d="M8490 3729 c-148 -39 -245 -122 -282 -242 -26 -86 -20 -156 17 -234&#xA;46 -94 133 -141 370 -203 150 -39 219 -71 234 -109 39 -93 -77 -163 -241 -146&#xA;-93 9 -159 29 -247 76 -41 22 -77 36 -81 32 -4 -4 -26 -49 -48 -100 l-40 -92&#xA;46 -30 c187 -120 494 -145 686 -58 144 66 222 214 194 367 -26 149 -109 208&#xA;-395 281 -87 23 -170 47 -185 55 -65 34 -76 98 -25 149 77 77 260 74 418 -6&#xA;34 -16 63 -29 65 -26 2 2 22 48 44 102 46 113 48 107 -56 149 -142 57 -334 72&#xA;-474 35z"></path>
<path d="M9531 3735 c-176 -40 -286 -143 -312 -294 -27 -152 52 -278 214 -336&#xA;34 -13 119 -38 187 -55 69 -18 145 -43 171 -55 95 -48 90 -144 -8 -182 -35&#xA;-13 -73 -18 -138 -17 -110 0 -203 26 -295 83 l-65 39 -16 -36 c-9 -21 -30 -67&#xA;-47 -104 l-31 -67 47 -30 c119 -76 233 -105 412 -106 192 0 303 37 389 130 63&#xA;68 84 124 85 220 1 68 -3 88 -27 137 -50 102 -127 146 -366 207 -83 22 -168&#xA;48 -189 59 -69 35 -79 108 -21 156 39 33 88 46 177 46 77 0 193 -32 261 -71&#xA;19 -11 37 -16 41 -12 4 4 25 50 45 102 31 77 35 95 24 103 -31 21 -118 58&#xA;-174 73 -84 23 -283 29 -364 10z"></path>
<path d="M11603 3731 c-136 -37 -222 -100 -270 -200 -24 -48 -28 -68 -28 -141&#xA;0 -99 17 -142 78 -203 47 -47 111 -78 237 -112 285 -79 324 -99 324 -170 0&#xA;-140 -299 -152 -517 -21 l-56 34 -45 -102 -45 -101 22 -19 c33 -29 158 -84&#xA;229 -101 35 -9 113 -18 173 -21 228 -12 394 58 470 197 37 69 47 189 21 267&#xA;-37 110 -135 170 -380 232 -87 22 -171 47 -186 55 -35 18 -60 52 -60 82 0 132&#xA;247 166 454 63 33 -17 61 -29 63 -27 6 6 83 200 81 203 -2 1 -30 16 -63 33&#xA;-92 46 -166 62 -305 67 -102 3 -138 1 -197 -15z"></path>
<path d="M1000 3160 l0 -570 415 0 415 0 0 115 0 115 -280 0 -280 0 0 455 0&#xA;455 -135 0 -135 0 0 -570z"></path>
<path d="M1970 3160 l0 -570 445 0 445 0 0 110 0 110 -310 0 -310 0 0 125 0&#xA;125 260 0 260 0 0 110 0 110 -260 0 -260 0 0 115 0 115 295 0 c162 0 295 1&#xA;296 3 6 19 9 157 5 183 l-7 34 -429 0 -430 0 0 -570z"></path>
<path d="M4520 3160 l0 -570 135 0 135 0 0 160 0 160 118 0 117 0 104 -160&#xA;104 -160 143 0 c79 0 144 2 144 5 0 3 -55 87 -121 187 -91 136 -118 183 -108&#xA;189 152 85 229 246 200 417 -30 172 -139 284 -323 327 -48 11 -132 15 -355 15&#xA;l-293 0 0 -570z m560 339 c53 -12 104 -49 126 -90 19 -38 20 -125 1 -170 -33&#xA;-79 -90 -101 -274 -107 l-143 -5 0 192 0 191 123 0 c67 0 142 -5 167 -11z"></path>
<path d="M7000 3363 c0 -407 5 -448 62 -555 102 -191 354 -282 604 -218 176&#xA;45 282 154 329 335 12 48 15 130 15 432 l0 373 -129 0 -130 0 -4 -367 c-3&#xA;-400 -6 -418 -60 -480 -44 -50 -98 -73 -177 -73 -134 0 -216 70 -239 204 -6&#xA;37 -11 198 -11 389 l0 327 -130 0 -130 0 0 -367z"></path>
<path d="M10290 3160 l0 -570 440 0 440 0 0 110 0 110 -310 0 -310 0 0 125 0&#xA;125 265 0 265 0 0 110 0 110 -265 0 -265 0 0 115 0 115 300 0 300 0 0 110 0&#xA;110 -430 0 -430 0 0 -570z"></path>
<path d="M4150 1805 l0 -295 45 0 45 0 0 130 0 130 160 0 160 0 0 -130 0 -130&#xA;45 0 45 0 0 295 0 295 -45 0 -45 0 0 -125 0 -125 -160 0 -160 0 0 125 0 125&#xA;-45 0 -45 0 0 -295z"></path>
<path d="M4930 1958 c-35 -79 -93 -212 -130 -296 -38 -83 -65 -154 -62 -155 4&#xA;-2 26 -2 49 1 42 4 42 5 69 73 l27 69 157 0 156 0 31 -70 31 -70 46 0 c25 0&#xA;46 2 46 4 0 4 -205 460 -250 559 -12 24 -19 27 -61 27 l-47 0 -62 -142z m151&#xA;-45 c23 -49 49 -109 60 -135 l19 -48 -120 0 -119 0 35 83 c20 45 46 106 57&#xA;134 12 29 23 53 25 53 2 0 21 -39 43 -87z"></path>
<path d="M5412 1888 c3 -209 4 -214 30 -265 48 -91 120 -128 241 -122 97 5&#xA;159 41 196 114 25 48 26 56 29 267 l3 218 -45 0 -46 0 0 -202 c0 -174 -3 -208&#xA;-18 -237 -26 -52 -63 -74 -129 -79 -48 -3 -64 0 -92 20 -74 50 -76 56 -79 289&#xA;l-3 209 -46 0 -45 0 4 -212z"></path>
<path d="M5990 2060 l0 -40 100 0 100 0 0 -255 0 -255 40 0 40 0 0 255 0 255&#xA;100 0 100 0 0 40 0 40 -240 0 -240 0 0 -40z"></path>
<path d="M6850 2060 l0 -40 110 0 110 0 0 -191 0 -191 -29 -29 c-48 -47 -128&#xA;-35 -176 27 -15 18 -16 18 -40 -9 -31 -35 -31 -48 -2 -75 35 -33 91 -52 152&#xA;-52 92 0 149 36 174 109 7 21 11 118 11 262 l0 229 -155 0 -155 0 0 -40z"></path>
<path d="M7312 1883 c3 -201 5 -221 25 -258 46 -86 114 -125 216 -125 116 0&#xA;184 39 225 129 25 54 26 63 26 261 l1 205 -42 3 -43 3 0 -183 c0 -101 -5 -201&#xA;-11 -223 -21 -78 -82 -120 -166 -113 -62 5 -100 29 -125 79 -15 29 -18 63 -18&#xA;237 l0 202 -46 0 -45 0 3 -217z"></path>
<path d="M7960 1804 l0 -295 43 3 42 3 0 85 0 85 87 3 87 3 61 -91 61 -90 50&#xA;0 50 0 -66 94 c-36 52 -65 99 -65 104 0 6 9 13 19 17 31 10 79 71 92 117 14&#xA;53 0 134 -31 177 -11 16 -43 41 -72 55 -49 25 -60 26 -205 26 l-153 0 0 -296z&#xA;m341 180 c39 -39 48 -94 22 -144 -27 -53 -71 -70 -180 -70 l-92 0 -3 126 -3&#xA;126 112 -4 c111 -3 113 -4 144 -34z"></path>
<path d="M8721 2078 c-5 -13 -44 -102 -86 -198 -84 -189 -155 -357 -155 -365&#xA;0 -3 20 -5 44 -5 l44 0 28 70 27 70 156 0 156 0 30 -73 31 -72 48 -3 c28 -2&#xA;47 1 45 7 -2 5 -62 140 -134 300 l-130 291 -48 0 c-40 0 -49 -4 -56 -22z m122&#xA;-220 l55 -128 -120 0 c-66 0 -118 4 -116 9 36 93 114 259 120 253 3 -4 31 -64&#xA;61 -134z"></path>
<path d="M6510 1750 l0 -40 120 0 120 0 0 40 0 40 -120 0 -120 0 0 -40z"></path>
<path d="M3840 1120 c-15 -29 -4 -59 26 -66 34 -9 56 12 52 50 -3 27 -7 31&#xA;-35 34 -24 2 -34 -2 -43 -18z"></path>
<path d="M4030 855 l0 -275 35 0 35 0 0 275 0 275 -35 0 -35 0 0 -275z"></path>
<path d="M4220 855 l0 -275 35 0 35 0 0 275 0 275 -35 0 -35 0 0 -275z"></path>
<path d="M6750 855 l0 -275 29 0 28 0 5 130 c6 145 16 172 71 195 41 17 79 9&#xA;109 -22 21 -23 23 -34 26 -164 l4 -139 35 0 36 0 -6 146 c-4 114 -10 153 -24&#xA;181 -38 72 -132 93 -210 48 l-43 -24 0 100 0 99 -30 0 -30 0 0 -275z"></path>
<path d="M3310 1095 c0 -3 45 -120 101 -260 l101 -255 37 0 37 0 98 248 c54&#xA;136 101 253 103 260 4 10 -4 13 -32 10 l-38 -3 -83 -210 c-63 -159 -84 -205&#xA;-90 -190 -4 11 -43 106 -85 210 l-77 190 -36 3 c-20 2 -36 1 -36 -3z"></path>
<path d="M6298 1018 c-3 -40 -5 -43 -32 -43 -24 -1 -29 -5 -32 -27 -2 -24 1&#xA;-27 29 -30 l32 -3 5 -141 c4 -121 8 -145 24 -163 25 -28 77 -41 121 -31 47 11&#xA;51 15 38 43 -9 19 -17 23 -47 19 -61 -7 -66 4 -66 144 l0 123 48 3 c45 3 47 4&#xA;47 33 0 29 -2 30 -52 33 l-53 3 0 40 c0 37 -2 39 -29 39 -28 0 -30 -3 -33 -42z"></path>
<path d="M3850 780 l0 -200 30 0 30 0 0 200 0 200 -30 0 -30 0 0 -200z"></path>
<path d="M4466 966 c-56 -21 -71 -38 -56 -66 8 -15 17 -19 28 -14 67 28 101&#xA;37 125 30 39 -9 67 -41 67 -76 l0 -30 -70 0 c-116 0 -170 -36 -170 -113 0 -21&#xA;7 -51 15 -66 28 -55 132 -72 199 -33 35 21 36 21 36 2 0 -16 7 -20 30 -20 l30&#xA;0 0 143 c0 156 -10 192 -62 230 -35 26 -120 32 -172 13z m164 -245 c0 -91&#xA;-139 -128 -170 -45 -21 54 18 82 113 83 l57 1 0 -39z"></path>
<path d="M4895 966 c-38 -17 -80 -62 -94 -99 -19 -49 -13 -130 12 -178 46 -86&#xA;163 -117 241 -64 l36 24 0 -35 c0 -42 -23 -89 -49 -104 -32 -16 -113 -11 -161&#xA;11 -42 19 -45 19 -57 3 -22 -30 -15 -44 35 -66 61 -28 161 -29 214 -4 21 10&#xA;48 35 60 55 22 34 23 45 23 251 l0 215 -30 0 c-23 0 -31 -5 -33 -22 l-3 -23&#xA;-29 22 c-37 27 -122 34 -165 14z m119 -60 c50 -21 76 -60 76 -115 0 -63 -28&#xA;-107 -79 -122 -62 -18 -109 3 -139 63 -45 90 1 176 101 187 4 1 22 -5 41 -13z"></path>
<path d="M5355 964 c-72 -37 -105 -95 -105 -184 0 -124 75 -204 191 -203 87 1&#xA;151 42 129 82 -13 25 -27 26 -52 5 -29 -27 -107 -29 -146 -4 -33 20 -65 76&#xA;-55 94 3 4 69 7 147 5 l141 -4 -3 45 c-1 25 -13 65 -25 89 -39 78 -147 114&#xA;-222 75z m113 -55 c31 -11 54 -36 66 -76 7 -23 7 -23 -103 -23 -102 0 -111 2&#xA;-111 19 0 24 37 70 64 81 29 12 48 12 84 -1z"></path>
<path d="M5940 958 c-35 -18 -52 -36 -73 -78 -25 -48 -28 -63 -24 -118 8 -101&#xA;59 -161 157 -183 46 -11 119 6 155 36 l30 24 -21 21 -21 21 -37 -22 c-70 -41&#xA;-169 -6 -190 67 -6 20 -2 22 36 26 24 2 90 3 147 2 l104 -1 -6 52 c-3 29 -12&#xA;67 -21 83 -43 83 -151 115 -236 70z m163 -78 c15 -16 27 -39 27 -50 0 -19 -7&#xA;-20 -110 -20 -120 0 -125 3 -91 54 28 42 59 57 106 52 29 -3 48 -14 68 -36z"></path>
<path d="M7238 959 c-51 -23 -56 -34 -35 -63 13 -17 16 -17 38 -3 81 51 179&#xA;17 179 -63 0 -18 -7 -20 -75 -20 -79 0 -116 -12 -149 -49 -25 -27 -26 -97 -2&#xA;-133 35 -54 141 -70 196 -30 36 27 40 27 40 2 0 -16 7 -20 30 -20 l30 0 0 143&#xA;c0 156 -10 192 -62 231 -41 30 -130 32 -190 5z m182 -233 c0 -76 -93 -123&#xA;-152 -76 -27 21 -36 53 -20 76 15 23 49 33 110 34 l62 0 0 -34z"></path>
<path d="M7607 974 c-4 -4 -7 -94 -7 -201 l0 -193 35 0 35 0 0 115 c0 167 24&#xA;214 107 215 78 0 93 -35 93 -216 l0 -114 29 0 28 0 5 133 c3 103 8 138 22 159&#xA;32 49 106 57 143 16 15 -17 19 -44 23 -162 l5 -141 33 -3 32 -3 0 146 c0 156&#xA;-5 179 -54 224 -37 35 -109 40 -165 12 -23 -12 -45 -29 -48 -37 -4 -12 -13 -8&#xA;-40 18 -31 30 -40 33 -93 33 -45 0 -65 -5 -88 -22 l-31 -23 -3 23 c-2 15 -11&#xA;23 -28 25 -14 2 -29 0 -33 -4z"></path>
<path d="M8385 964 c-71 -37 -104 -97 -105 -187 0 -120 76 -200 191 -200 93 0&#xA;169 56 124 93 -12 10 -21 8 -48 -9 -61 -38 -153 -18 -182 40 -32 61 -30 62&#xA;128 58 l142 -4 -3 49 c-1 27 -12 67 -25 90 -40 73 -150 108 -222 70z m125 -59&#xA;c28 -14 60 -60 60 -85 0 -6 -40 -10 -110 -10 -93 0 -110 2 -110 16 0 26 20 54&#xA;53 74 39 24 68 25 107 5z"></path>
<path d="M8767 966 c-56 -21 -69 -34 -55 -60 6 -11 12 -23 14 -25 2 -2 24 7&#xA;49 19 78 38 147 13 161 -58 l7 -32 -77 0 c-93 0 -139 -17 -161 -61 -23 -43&#xA;-14 -104 18 -136 45 -46 151 -49 198 -7 18 16 19 16 19 -4 0 -18 6 -22 29 -22&#xA;16 0 31 6 33 13 2 6 4 73 3 148 -1 115 -5 141 -21 170 -36 63 -128 86 -217 55z&#xA;m171 -229 c11 -58 -57 -115 -121 -103 -41 8 -60 33 -55 74 4 37 40 53 113 50&#xA;49 -3 60 -6 63 -21z"></path>
<path d="M9120 834 c0 -192 16 -229 113 -255 46 -12 100 1 133 32 l24 22 0&#xA;-26 c0 -23 4 -27 30 -27 l30 0 0 201 0 200 -30 -3 -30 -3 -3 -125 c-2 -105 -6&#xA;-131 -23 -160 -35 -61 -127 -65 -164 -7 -10 15 -15 63 -18 160 l-4 137 -29 0&#xA;-29 0 0 -146z"></path>
<path d="M9530 975 c0 -4 26 -44 58 -88 32 -45 62 -88 66 -95 6 -10 -52 -101&#xA;-127 -199 -7 -10 0 -13 32 -13 40 0 42 2 87 70 26 39 50 70 54 70 4 0 29 -31&#xA;56 -70 46 -65 51 -70 87 -70 28 0 36 3 31 12 -5 7 -36 53 -71 101 l-63 89 65&#xA;93 c36 51 65 96 65 99 0 3 -15 6 -33 6 -29 0 -38 -8 -82 -70 -28 -38 -52 -70&#xA;-55 -70 -3 1 -25 31 -50 68 -41 61 -49 67 -82 70 -21 2 -38 0 -38 -3z"></path>
</g>
</svg>